<?xml version="1.0" encoding="UTF-8"?>
<svg xmlns="http://www.w3.org/2000/svg" xmlns:xlink="http://www.w3.org/1999/xlink" version="1.1" viewBox="0 0 2500 2000">
  <defs>
    <style>
      .cls-1 {
        fill: none;
      }

      .cls-1, .cls-2, .cls-3 {
        stroke-width: 0px;
      }

      .cls-2 {
        fill: #b4b4b4ff;
      }

      .cls-3 {
        fill: url(#New_Pattern);
      }

      .cls-4 {
        opacity: .5;
      }
    </style>
    <pattern id="New_Pattern" data-name="New Pattern" x="0" y="0" width="787.5" height="660" patternTransform="translate(7.7 9.7)" patternUnits="userSpaceOnUse" viewBox="0 0 787.5 660">
      <g>
        <rect class="cls-1" x="0" width="787.5" height="660"/>
        <g>
          <path class="cls-2" d="M759.9,561.6c5.5,4.9,10.4,10.7,13.3,17.6,2.5,5.9,2.9,12.4,1,18.6-1.5,4.8-4.2,9.2-8,12.4,0,.4,0,.8,0,1.1-.6,8.9-1.7,18.2-5.7,26.3-1.9,3.8-4.7,7.3-8.4,9.6-4.1,2.5-9.1,3.2-13.8,2.6-16.6-2-33.2-4.6-49.8-7.4-7.3-1.2-14.8-2.2-21.9-4.2-6.2-1.7-12.2-4.6-16.1-9.8-8.3-11.1-5.2-26-3.2-38.6-2.8-2.3-5-5.4-6.1-9-3.9-12.1,6.5-22.7,15.6-29,4.5-3.2,9.5-5.9,14.7-7.8,5.7-2,12-3.1,18-3.4-.1-.5-.2-1-.3-1.5-.7-5.3.2-11,3.5-15.4.4-.5.8-.8,1.3-1.1.1-.3.3-.6.6-.9.2-.2.4-.3.5-.5-2-2.4-2.6-5.7-1.2-8.7,1.5-3.1,5.1-4.6,8.5-4.1,1.4.2,3,.9,4,2,.2-.9.5-1.8.8-2.6,1.5-3.3,5.3-5.2,8.8-4.5,1.9.4,3.6,1.6,4.7,3.2,2.4-1.5,5.3-2,8-.6,3.2,1.7,4.9,6.2,3.1,9.4,3.1,1.7,5.7,4.1,7.2,7.4.1.3.3.6.4,1,0-.8.4-1.7,1.2-2,4.4-1.9,9.2-1.9,13.5-.4,2.4-3,6.5-4.7,10.2-3.1,2.6,1.1,4.4,3.8,4.6,6.6,1.3.4,2.5,1.3,3.3,2.5.9,1.4,1.1,3,.7,4.5,2.7,1.4,4.9,4,5,7.2.2,4.3-4,8.1-8.2,7-.3,0-.6-.2-.8-.4-.3,4.1-1.5,8.1-4,11.5-1.4,1.8-3,3.4-4.9,4.6ZM764,528.9c2.6,3.6,4.2,8.1,4.7,12.6.5-.5,1.3-.8,2.2-.5.1,0,.2,0,.3,0,.2,0,.4-.1.4-.1.2,0,.5-.3.6-.6.4-.6.6-1.2.4-1.8-.4-1.7-2.4-2.7-4.1-3.1-1.9-.4-2.4-2.9-1.1-4.2.4-.4.5-1,.3-1.5-.3-.5-1-.5-1.5-.4-.8.3-1.7,0-2.2-.5ZM758.6,523.6c.7.5,1.4,1,2.1,1.6,1,.8,1.8,1.8,2.6,2.8-.3-.7-.3-1.5.1-2.2.3-.5.3-1,0-1.6-.3-.7-.9-1.3-1.4-1.5-1.3-.4-2.5,0-3.5.9ZM732.6,522.3c-2.8-3.1-7.1-4.5-11.2-5-8.5-.9-17.5,1.6-23.4,7.9-.3.3-.6.5-.9.6,0,.1,0,.2-.2.3-2.9,4-3.7,9.1-2.5,13.9,1.2,5,4.3,9.4,8,13,6.3,6.1,16.5,12,25,6.7,8.4-5.2,8.6-16.8,8.4-25.5,0-4.1-.3-8.8-3.3-12ZM721.7,512.2s0,0,0,0c1.6.2,3.2.5,4.7.9.2,0,.3,0,.5.1.5-.7.6-1,.3-1.8-.2-.5-.6-1.1-1.2-1.3-1.5-.6-3.4.6-4.2,2ZM710.7,512.7s0,0,0,.1c2.2-.5,4.4-.7,6.6-.8-.2-.3-.3-.7-.3-1.1,0-2.4-2.7-3.6-4.5-2.1-1.2.9-1.1,2.6-1.7,3.9ZM698.7,518c1.6-1.2,3.4-2.1,5.3-3-.2-.1-.4-.3-.6-.5-.4-.3-.8-.8-1.2-1-.9-.4-2-.4-2.8,0-1.5.8-1.8,3.1-.6,4.3ZM651.8,592.6c-.5,3-1,6.2-1.4,9.4,2.6,2.3,5.6,4.1,8.7,5.5,3.6,1.6,7.4,2.4,11.3,3.3,15,3.7,30,7.3,45.3,9.5,14.7,2.1,29.7,2.7,44.4,1,.4-2.6.7-5.3.9-7.9-8.2,3.3-18.7.5-23.2-7.1-.3.2-.6.5-.9.7-10.1,7.5-25.6,6-33.9-3.5-.9-1-1.9-2.5-3.2-2.9-1.3-.4-2.7,1.1-3.8,1.7-2.7,1.6-5.8,2.4-8.9,2.4-6.3,0-12.7-3.1-16.2-8.4-.8-1.2-1.2-2.6-2-3.7-.5-.6-.7-.3-1.5,0-.8.3-1.5.6-2.3.9-3.2,1-6.8,1-10.1.2-1.1-.3-2.2-.6-3.2-1.1ZM759.6,623.9c-8.1,1-16.4,1.2-24.6.8-15.4-.7-30.7-3.4-45.7-6.8-7.7-1.7-15.5-3.6-23.2-5.5-5.8-1.4-11.4-3.7-16.1-7.3-.2,2-.2,4.1-.2,6,4.9,3.5,10.5,6,16.1,7.9,6.4,2.2,13,3.7,19.6,5.1,7,1.4,14,2.8,21,4,8.6,1.4,17.3,2.3,26,2.9,8.3.5,16.7.6,25,.3.9-2.5,1.5-4.9,2-7.3ZM756.6,633.8c-.4,0-.8,0-1.2,0-8.8.2-17.7,0-26.5-.6-8.8-.7-17.6-1.7-26.2-3.3-6.8-1.2-13.7-2.5-20.5-4-6.7-1.4-13.3-3.1-19.7-5.5-4.3-1.6-8.5-3.6-12.3-6.1.7,5.5,2.7,10.6,7.4,14.2,4.6,3.6,10.6,5,16.2,6.1,7.5,1.5,15.1,2.7,22.6,4,7.8,1.3,15.6,2.5,23.4,3.6,3.8.6,7.7,1.1,11.6,1.6,3.3.4,6.6,1.1,9.9,1.1,2.2,0,3.7-.2,5.9-1,.2,0,.3-.1.5-.2-.2.1-.2,0,0,0,.2,0,.4-.2.7-.3.4-.2.8-.4,1.2-.7.4-.2.7-.5,1.1-.8,0,0,.6-.5.6-.5,2.4-2.1,4.1-4.9,5.3-7.7ZM755.3,564c-2.1.9-4.3,1.5-6.6,1.8-5.8,1-12.1.6-17.1-2.9-1.7,1.4-3.7,2.4-5.8,3.1-11.2,3.4-22.7-3.9-29.7-12.2-2.2-2.6-4-5.4-5.3-8.5-.2,0-.5.2-.8.2-1.2,0-2.4.2-3.6.3-3.1.4-6.1.9-9.1,1.6-1.5.3-2.9.7-4.3,1.2-1.3.4-2,.8-3,1.2-4.8,2.2-9.4,4.9-13.5,8.2-4.1,3.3-8.1,7.2-10.1,12.1-.8,2-1.2,4.1-1,6.5,0,.8.4,2.2.8,3.3.4,1.2,1.1,2.5,1.9,3.6,3.2,4.3,9.3,6.5,14.6,5.3,1.6-.4,3.1-1.3,4.7-1.6,2.1-.4,4,.3,5.3,2,1,1.2,1.5,2.7,2.3,4,.7,1.1,1.5,2,2.4,2.8,3.8,3.4,9.6,4.4,14.4,2.6,1.2-.5,2.4-1.4,3.6-2.1,1.7-1,3.6-1.5,5.6-1.1,3.3.8,5,3.9,7.3,6.1,7.8,7.3,21.6,6.5,28.6-1.6,1.3-1.5,3.7-.6,4.2,1.1,1.3,4.6,5.5,7.4,10.2,8.3,3.5.7,7.2-.2,10.3-2.2.3-.7,1-1.1,1.7-1.2,0,0,0,0,0,0,3.8-3.3,6-8,6.9-12.9,2-11.4-6.2-21.6-14.2-28.6-.2-.2-.4-.4-.5-.7ZM761.3,553.1c2.2-3.7,3-8.4,2.2-12.6-.8-4.7-3.2-9.3-7-12.2-3.7-2.9-9.1-4.2-13.6-2.3-1.1.5-2.3.4-3.1-.4,1.2,4.1,1.1,8.6,1.1,12.8,0,5.9-.7,11.9-3.4,17.3-.6,1.3-1.4,2.5-2.3,3.6,4.2,2.3,9.2,2.4,13.8,1.3,4.8-1.1,9.5-3.2,12.2-7.5Z"/>
          <path class="cls-2" d="M783.6,575.2c-.6.2-1.1.9-.9,1.6,2.3,6.2,2.8,12.9,1.5,19.3-.1.7.2,1.4.9,1.6.6.2,1.4-.2,1.6-.9,1.4-6.9.9-14.1-1.5-20.7-.2-.6-.9-1.1-1.6-.9Z"/>
          <path class="cls-2" d="M778.4,577.8c-.6.4-.7,1.1-.5,1.7,1.3,3.1,1.8,6.4,1.4,9.7,0,.7.6,1.3,1.3,1.3s1.2-.6,1.3-1.3c.4-3.8-.2-7.5-1.7-11-.3-.6-1.2-.8-1.7-.5Z"/>
          <path class="cls-2" d="M850.5,429.8c-.1.4-.3.8-.5,1.1-4.1,8.8-14.3,12.6-23,15.1,0,0-.2,0-.2,0-.8,2.3-2.2,4.4-4.3,6.1-4.3,3.4-9.9,4.9-14.9,6.7-5.3,2-11.2,4-16.6,1.2-3.9-2-6.1-6-7.4-10-7.8,1.5-16.2,1.5-23.1-2.9-3-1.9-5.5-4.4-7.1-7.6-.4-.7-.7-1.4-1-2.2-9.9,3-17.3-7.5-19.1-15.8-1-4.6-.7-9.3,1.5-13.5,1.9-3.7,5.2-6.6,9.2-7.8.2,0,.4-.1.6-.1.3-4.5,1.6-8.9,3.9-12.8,2.9-5,8-9.3,13.8-9.5-.4-1.3-.7-2.6-.6-4.1,0-.5.2-1,.5-1.4.3-1.6.7-3,1.6-4.4,2-3.3,5.2-5.8,8.5-7.7,3.7-2.2,7.9-3.7,12-4.8,6.4-1.7,13.2-1.9,19.8-1.6,6.3.3,14.2,1.1,18.8,6,.9,1,1.6,2,2.1,3.2,6-2.8,13.5-1.8,19.3,1.1,5.7,2.9,10.2,8.1,11.6,14.3,8.1-4.4,18.8-2.9,25.1,4.4,8.2,9.4,5.6,23.5-.7,33.2-6.4,9.9-17.8,16.1-29.7,14ZM818.1,362.2s0,0,0,0h0ZM750.8,432.6c-.2-.9-.4-1.8-.6-2.7-.6-3.4-1-6.9-1.9-10.2-1-3.7-2.4-7.3-3.2-11-.2-1.1-.4-2.2-.5-3.4-5.8,2.3-7.7,9.2-6.5,14.9,1.2,5.5,5.8,14.3,12.7,12.4ZM782.3,445.2c-.8-3.8-1.3-7.7-1.9-11.4-1.1-6.2-2.1-12.4-3.2-18.6-.9-5.5-1.7-11.1-3.2-16.6-1.3-4.9-3.3-9.4-6.7-13.3-.7-.8-1.4-1.6-2.1-2.4-.3,0-.7,0-1.1,0-6.3-1.5-11.4,5.6-13.2,10.7-1,2.9-1.6,5.8-1.5,8.9,0,3.4.9,6.6,1.9,9.8,1,3.1,2,6.2,2.6,9.4.6,3.1,1,6.2,1.6,9.2.6,2.8,1.5,5.4,3,7.8,1.6,2.4,3.9,4.1,6.4,5.4,5.4,2.6,11.5,2.4,17.3,1.3ZM822.4,437.1c-.3-2.7-.8-5.5-1.3-8.2-1.1-5.5-2.5-11-3.6-16.5-2.2-10.6-3.6-21.8-.9-32.5.6-2.6,1.6-5.1,2.7-7.5.5-1.2,1-2.4,1.3-3.7.1-.5.2-.9.2-1.4,0,0,0-.8,0-.8,0-.3-.1-.7-.2-1,0-.1,0-.3-.1-.4,0,0,0,0,0,0,0,0,0,0,0,0-.1-.3-.3-.6-.5-.9,0,0-.3-.4-.3-.5-.4-.5-.8-.9-1.3-1.3,0,0,0,0,0,0-.1,0-.2-.2-.3-.2-.3-.2-.6-.4-.9-.5-.3-.2-.7-.4-1-.5-.2,0-.3-.2-.5-.2,0,0,0,0-.1,0-.6-.2-1.2-.5-1.9-.6-1.5-.4-3-.7-4.6-1-.1,0-.5,0-.5,0-.2,0-.4,0-.5,0-.4,0-.7,0-1.1-.1-.8,0-1.5-.1-2.3-.2-1.5,0-3.1,0-4.6,0-6.5,0-12.3.6-18.5,2.8-3.4,1.2-7,2.9-9.8,5.1-.6.5-1.3,1.1-1.8,1.6-.5.5-1.1,1.2-1.3,1.5-.4.6-.8,1.2-1.1,1.9,0,0-.2.6-.2.7,0,.2-.2,1.1-.2.6,0,.4-.2.8-.3,1.1,0,1.6.4,2.9,1.4,4.3,1,1.5,2.4,2.8,3.6,4.2,1.6,1.9,3,3.8,4.1,6,2.3,4.6,3.6,9.6,4.5,14.6,2.1,11.3,3.9,22.7,5.9,34.1,1.2,6.9,2,19.6,11.6,19.1,2.5-.1,4.9-1.1,7.2-1.9,2.7-1,5.4-2,8.1-3,3.7-1.4,8-3.3,9.2-7.5.6-2.2.5-4.6.3-6.9ZM847.1,389c.5-2.9,2.1-5.4,4.2-7.5,0-.1,0-.2,0-.3-.8-5.7-4.3-10.1-9.3-12.7-4.7-2.5-11.2-3.3-16.2-.4,0,.7-.1,1.5-.3,2.2-.7,2.7-2.1,5.2-3,7.8-.9,2.5-1.5,5.1-1.8,7.8-1.6,11.7,1.3,23.3,3.9,34.7,1.3,5.8,2.6,11.7,3.1,17.7,0,.8,0,1.6,0,2.4,4.6-1.4,9.2-3.1,13-6.1,1.9-1.5,3.5-3.3,4.6-5.5,1.5-2.9,1.7-6.3,1.7-9.5,0-6.8-.2-13.7-.2-20.5,0-3.3-.3-6.8.3-10ZM851.7,424.9c11.8,2.1,22.3-6.2,26.8-16.6,2.1-4.9,3.4-10.7,2-16-1.2-4.5-4.3-8.1-8.4-10.2-4-2-9-1.9-13.1,0-2,1-3.9,2.3-5.3,4.1-1.7,2.2-1.9,4.8-1.9,7.5,0,6.4.2,12.8.2,19.1,0,3.9.3,8-.3,11.9Z"/>
          <path class="cls-2" d="M758.5,420.4c0-.7-.5-1.3-1.3-1.3s-1.3.6-1.3,1.3c.8,7,1.8,14.7,7,19.9,1.2,1.1,2.9-.6,1.8-1.8-4.7-4.7-5.6-11.8-6.3-18.1Z"/>
          <path class="cls-2" d="M772.1,442.9c-.1,0-.2,0-.4,0-.3,0-.5-.1-.8-.2-.2-.1-.5-.3-.7-.4-.1,0-.2-.2-.3-.3-.5-.5-1.3-.5-1.8,0-.5.5-.5,1.3,0,1.8,1,1.1,2.5,1.7,4,1.7.7,0,1.3-.6,1.3-1.3,0-.7-.6-1.3-1.3-1.3Z"/>
          <path class="cls-2" d="M654.6,455.9c-.2-.1-.3-.3-.3-.5,0-.2,0-.4.3-.5,3.5-2.6,6.3-6.2,7.9-10.3,0-.2.3-.4.6-.4h0c.3,0,.5.2.6.4,1.6,4.1,4.4,7.6,7.9,10.3.2.1.3.3.3.5,0,.2,0,.4-.3.5-3.5,2.6-6.3,6.2-7.9,10.3,0,.2-.3.4-.6.4h0c-.3,0-.5-.2-.6-.4-1.6-4.1-4.4-7.6-7.9-10.3ZM656.1,455.3c3,2.4,5.5,5.5,7.1,8.9,1.6-3.5,4.1-6.5,7.1-8.9-3-2.4-5.5-5.5-7.1-9-1.6,3.5-4.1,6.5-7.1,9Z"/>
          <path class="cls-2" d="M634.7,456.5c.2.1.3.3.3.5,0,.2,0,.4-.3.5-1.7,1.2-3,2.9-3.7,4.8,0,.2-.3.4-.6.4h0c-.3,0-.5-.2-.6-.4-.8-1.9-2.1-3.6-3.7-4.8-.2-.1-.3-.3-.3-.5,0-.2,0-.4.3-.5,1.7-1.2,3-2.9,3.7-4.9,0-.2.3-.4.6-.4h0c.3,0,.5.2.6.4.8,1.9,2.1,3.6,3.7,4.9ZM633.3,457c-1.2-1-2.2-2.3-2.9-3.6-.7,1.4-1.7,2.6-2.9,3.6,1.2,1,2.2,2.2,2.9,3.6.7-1.4,1.7-2.6,2.9-3.6Z"/>
          <path class="cls-2" d="M649.4,466.5c1.8,0,3.3,1.5,3.3,3.3s-1.5,3.3-3.3,3.3-3.3-1.5-3.3-3.3,1.5-3.3,3.3-3.3ZM649.4,467.7c-1.2,0-2.1.9-2.1,2.1s.9,2.1,2.1,2.1,2.1-.9,2.1-2.1-.9-2.1-2.1-2.1Z"/>
          <path class="cls-2" d="M642.2,367.4c.7,0,1.3-.6,1.3-1.3v-4c0-.7-.6-1.3-1.3-1.3-.7,0-1.3.6-1.3,1.3v4c0,.7.6,1.3,1.3,1.3Z"/>
          <path class="cls-2" d="M642.2,378.6c.7,0,1.3-.6,1.3-1.3v-4c0-.7-.6-1.3-1.3-1.3-.7,0-1.3.6-1.3,1.3v4c0,.7.6,1.3,1.3,1.3Z"/>
          <path class="cls-2" d="M645.8,371h4c.7,0,1.3-.6,1.3-1.3,0-.7-.6-1.3-1.3-1.3h-4c-.7,0-1.3.6-1.3,1.3,0,.7.6,1.3,1.3,1.3Z"/>
          <path class="cls-2" d="M638.6,368.5h-4c-.7,0-1.3.6-1.3,1.3,0,.7.6,1.3,1.3,1.3h4c.7,0,1.3-.6,1.3-1.3,0-.7-.6-1.3-1.3-1.3Z"/>
          <path class="cls-2" d="M609.6,565.6c0,2.5-2,4.5-4.5,4.5s-4.5-2-4.5-4.5,2-4.5,4.5-4.5,4.5,2,4.5,4.5ZM607.1,565.6c0-1.1-.9-2-2-2s-2,.9-2,2,.9,2,2,2,2-.9,2-2Z"/>
          <path class="cls-2" d="M707.5,345.8c0-2.5,2-4.5,4.5-4.5s4.5,2,4.5,4.5-2,4.5-4.5,4.5-4.5-2-4.5-4.5ZM710,345.8c0,1.1.9,2,2,2s2-.9,2-2-.9-2-2-2-2,.9-2,2Z"/>
        </g>
        <g>
          <path class="cls-2" d="M554.1,753.7c-.1,0-.3.1-.4.2-10.3,3.3-20.9,5.4-31.6,6.4-9.4.9-18.9.9-28.3,0-4.7-.5-9.5-1.1-14.1-2.1-2.2-.5-4.1-1.4-5.4-3.3-1.3-1.8-2-4.1-2.9-6.2-3.7-8.7-6.6-17.8-8.8-27-.5-2.1-1.2-4.3-.8-6.5.4-2.3,2.2-3.8,4.4-4.4,2.2-.5,4.6-.7,6.9-1,2.3-.3,4.5-.6,6.8-.9-1.6-5.7,0-12,4.8-16,1.7-1.4,3.5-2.3,5.5-2.9-1.1-4.7.2-9.9,3.5-13.4,2.4-2.6,5.6-4,9.1-4.4-.6-2.2-.6-4.5,0-6.7,1.1-3.2,3.3-5.6,6.5-6.9,2.7-1.1,5.2-2.1,6.9-4.7,1.4-2.1,2.3-4.8,1.9-7.4-.3-2,1.1-3.4,3.1-3.1,5,.7,9.5,4.1,11.8,8.6.3.6.3,1.2.2,1.7,2.1-.6,4.2-.9,6.4-.9.4,0,.7,0,1.1,0,1-.9,2-1.8,3-2.6,1.1-.8,2.5-1.1,3.6,0,.9.9,1.1,2.7,0,3.6-.2.1-.4.3-.5.4,4.3,1.7,8,4.9,10,9.3,2.4,5.4,2.5,11.9,0,17.2,1.7,0,3.4.4,4.9,1.4,5.1,3.2,7.1,9.9,6,15.6-.6,3.1-2.3,6-4.7,8-1.8,1.5-3.9,2.5-6.1,3.2,3.3.8,5.9,3.4,7.2,6.7,1.6,4.1,1.1,8.7,1,12.9-.1,3.7,0,7.5-.7,11.2-1,6.1-4.1,12-10.3,13.8ZM473.4,740.1c6.3.9,12.7,1.8,19.1,2.5,11.3,1.2,22.8,1.8,34.2.7,11.3-1.1,22.4-4.1,32.6-9.2.3-.1.5-.2.8-.1,0-1.9.1-3.9.2-5.8,0-.8,0-1.6,0-2.4-5.2,3.4-11,5.9-17,7.6-5.7,1.6-11.5,2.4-17.4,3.1-6.2.7-12.5,1.4-18.8,1.5-12.1.2-24.2-1.3-35.9-4.3.6,2,1.3,3.9,2,5.9,0,.2.1.4.2.6ZM561.1,700.7c0,0,.2-.3,0,0h0ZM546.3,659.6c-1.2-.6-2.4-1-3.7-1.3-3.1,3.1-5.8,6.6-8,10.4,3.7.9,7.3,2.6,10.3,5.2,2.4,2.1,4.4,4.7,5.7,7.6,0,0,0,0,0-.1,1.9-2.5,3-5.5,3-8.6.1-5.5-2.5-10.6-7.4-13.2ZM509.5,695.7c.9,3.9,5,6.5,8.4,8.1,4.4,2.1,9.9,2.8,14.7,2.7,3.7-.1,7.2-1.3,10-3.9,2.5-2.3,4.2-5.4,4.9-8.7,1.5-6.9-2.5-14.3-8.4-17.9-2.1-1.3-4.5-2.2-6.9-2.6-.9,1.9-1.6,3.8-2.2,5.8-1,3.1-5.8,1.8-4.9-1.3.5-1.6,1.1-3.1,1.7-4.6-3.5.3-6.9,1.4-9.8,3.3-5.7,3.6-9.9,10.8-8.3,17.6,0,.1,0,.2,0,.3.3.3.6.7.7,1.3ZM495.3,689.2c2.8,0,5.6.6,8.1,1.8,0-8.6,6-16.8,13.8-20.4,3.8-1.7,7.9-2.6,12-2.5,1.8-3.4,4-6.7,6.5-9.7-1.7.4-3.3,1.1-4.7,2.1-1.1.8-2.8.2-3.5-.9-.7-1.2-.2-2.7.9-3.5.3-.2.7-.5,1.1-.7-.3-.2-.5-.5-.7-.9-1.2-2.5-3.2-4.3-5.6-5.3-.5,4.9-3.1,9.4-7.4,12-2.4,1.5-5.7,1.7-7.3,4.2-1.2,1.9-1.4,4.3-.3,6.3.2.4.3.8.3,1.2.5.6.7,1.6.5,2.3-.3,1.4-1.8,2-3.1,1.8-.1,0-.2,0-.2,0,0,0,0,0-.1,0-.2,0-.5,0-.7,0-.5,0-1,0-1.5,0,0,0,0,0-.1,0,0,0,0,0-.1,0-.2,0-.4,0-.7.1-.4,0-.9.2-1.3.4-.2,0-.3.1-.5.2,0,0-.3.1-.4.2-.4.2-.8.4-1.2.7-.2.1-.4.3-.6.4,0,0,0,0,0,0,0,0,0,0-.1.1-.3.3-.7.6-1,.9-.1.1-.2.3-.3.4,0,0-.2.3-.3.3-.3.4-.5.8-.7,1.2-.1.2-.2.4-.3.6,0,0,0,0,0,.1,0,0,0,0,0,.1-.2.5-.3.9-.4,1.4,0,.2-.1.4-.1.7,0,0,0,.2,0,.3,0,.4,0,.9,0,1.3,0,.5,0,.9,0,1.4,0,0,0,.3,0,.3,0,.2,0,.4.2.7,0,.1,0,.2,0,.3ZM488.6,713.7c4.9,4.8,12.2,5.6,18.7,5.3,14.6-.7,29.2-5.4,41.8-12.6,0,0,.2,0,.3-.1.5-.7,1.2-1.1,2.1-1.2,1,0,1.7-.2,2.9-.4.5-.1,1-.2,1.4-.4.2,0,.4-.2.7-.2,0,0,.3-.1.4-.1.7-.3,1.3-.7,2-1.1.2-.1.4-.3.6-.4,0,0,0,0,0,0,.3-.2.6-.5.9-.8.3-.3.5-.5.8-.8,0-.1.2-.2.3-.4.3-.5.6-1,.9-1.5,0,0,0,0,0,0,0,0,0,0,0,0,0-.1.1-.3.2-.4,0-.2.2-.5.2-.7,0-.3.1-.6.2-.8,0-.2,0-.5,0-.6,0-.5,0-1.1,0-1.6,0-.3,0-.6,0-.8,0-.1,0-.2,0-.4-.1-.6-.2-1.2-.4-1.8,0-.3-.2-.5-.3-.8,0-.1,0-.2-.1-.3,0,0,0,0,0,0-.3-.5-.5-1-.8-1.5-.1-.2-.3-.4-.4-.6,0,0,0,0,0,0,0,0,0,0-.1-.1-.4-.4-.8-.7-1.1-1.1,0,0-.1-.1-.2-.1-.2-.1-.4-.3-.6-.4-.1,0-.2-.1-.4-.2-.2,0-.4-.1-.6-.2-.2,0-.5,0-.7-.2.8.2,0,0-.2,0-.3,0-.6,0-.9,0,0,0,0,0,.1,0,0,0-.1,0-.2,0,0,0,0,0,0,0-.1,0-.3,0-.1,0,0,0,0,0-.1,0-.3,0-.5.1-.8.2-.2,0-1,.4-.4.1-.7.3-1.5.4-2.1.2.8,3.8.6,7.9-.9,11.6-1.6,4.1-4.4,7.7-8.1,10.2-4.4,2.9-9.6,3.5-14.7,3-5.2-.5-10.5-1.5-15-4.2-3.8-2.2-7.5-5.3-8.8-9.7-.3,0-.6-.1-.9-.3-5.4-3.9-13.7-4.3-17.8,1.7-3.4,4.9-1.4,10.9,2.6,14.8ZM467.3,719.9c.5,2.3,1.1,4.7,1.8,7,.4,1.3.8,2.6,1.2,3.9,6.5,1.8,13.1,3,19.8,3.8,6.4.7,12.8,1,19.3.8,6.1-.2,12.3-.9,18.4-1.7,5.6-.7,11.3-1.7,16.7-3.3,5.6-1.7,10.8-4.2,15.6-7.5,0,0,.1,0,.2-.1,0-.6,0-1.2,0-1.7-.1-1.8-.5-3.8-1.7-5.3-.8-1-2.3-2.1-3.7-1.9-1.4.2-2.7-.3-3.1-1.8-.1-.4,0-.9,0-1.3-8.3,4.7-17.2,8.3-26.4,10.6-13.7,3.4-34.4,6.4-43.2-7.6-2.6.4-5.2.7-7.8,1.1-2.3.3-4.9.4-7.2,1.1,0,0-.2,0-.2.1,0,0-.1.2-.1.2,0,.2,0,.5,0,.8,0,1,.4,2,.6,3ZM551.3,749.3c.2-.1.4-.2.7-.3,5.6-1.3,7.3-7.1,7.7-12.4-5.7,2.8-11.7,5.1-17.9,6.6-11.2,2.8-22.8,3.5-34.2,3-11.2-.4-22.2-1.9-33.3-3.5,1.1,2.9,2.2,5.7,3.6,8.4.8,1.6,1.9,1.9,3.6,2.2,2.1.4,4.3.8,6.4,1.1,4.2.6,8.5,1,12.8,1.2,17.1.9,34.3-1.3,50.6-6.4Z"/>
          <path class="cls-2" d="M456.7,594.8c-.1.4-.3.8-.5,1.1-4.1,8.8-14.3,12.6-23,15.1,0,0-.2,0-.2,0-.8,2.3-2.2,4.4-4.3,6.1-4.3,3.4-9.9,4.9-14.9,6.7-5.3,2-11.2,4-16.6,1.2-3.9-2-6.1-6-7.4-10-7.8,1.5-16.2,1.5-23.1-2.9-3-1.9-5.5-4.4-7.1-7.6-.4-.7-.7-1.4-1-2.2-9.9,3-17.3-7.5-19.1-15.8-1-4.6-.7-9.3,1.5-13.5,1.9-3.7,5.2-6.6,9.2-7.8.2,0,.4-.1.6-.1.3-4.5,1.6-8.9,3.9-12.8,2.9-5,8-9.3,13.8-9.5-.4-1.3-.7-2.6-.6-4.1,0-.5.2-1,.5-1.4.3-1.6.7-3,1.6-4.4,2-3.3,5.2-5.8,8.5-7.7,3.7-2.2,7.9-3.7,12-4.8,6.4-1.7,13.2-1.9,19.8-1.6,6.3.3,14.2,1.1,18.8,6,.9,1,1.6,2,2.1,3.2,6-2.8,13.5-1.8,19.3,1.1,5.7,2.9,10.2,8.1,11.6,14.3,8.1-4.4,18.8-2.9,25.1,4.4,8.2,9.4,5.6,23.5-.7,33.2-6.4,9.9-17.8,16.1-29.7,14ZM424.4,527.2s0,0,0,0h0ZM357.1,597.6c-.2-.9-.4-1.8-.6-2.7-.6-3.4-1-6.9-1.9-10.2-1-3.7-2.4-7.3-3.2-11-.2-1.1-.4-2.2-.5-3.4-5.8,2.3-7.7,9.2-6.5,14.9,1.2,5.5,5.8,14.3,12.7,12.4ZM388.6,610.2c-.8-3.8-1.3-7.7-1.9-11.4-1.1-6.2-2.1-12.4-3.2-18.6-.9-5.5-1.7-11.1-3.2-16.6-1.3-4.9-3.3-9.4-6.7-13.3-.7-.8-1.4-1.6-2.1-2.4-.3,0-.7,0-1.1,0-6.3-1.5-11.4,5.6-13.2,10.7-1,2.9-1.6,5.8-1.5,8.9,0,3.4.9,6.6,1.9,9.8,1,3.1,2,6.2,2.6,9.4.6,3.1,1,6.2,1.6,9.2.6,2.8,1.5,5.4,3,7.8,1.6,2.4,3.9,4.1,6.4,5.4,5.4,2.6,11.5,2.4,17.3,1.3ZM428.7,602.1c-.3-2.7-.8-5.5-1.3-8.2-1.1-5.5-2.5-11-3.6-16.5-2.2-10.6-3.6-21.8-.9-32.5.6-2.6,1.6-5.1,2.7-7.5.5-1.2,1-2.4,1.3-3.7.1-.5.2-.9.2-1.4,0,0,0-.8,0-.8,0-.3-.1-.7-.2-1,0-.1,0-.3-.1-.4,0,0,0,0,0,0,0,0,0,0,0,0-.1-.3-.3-.6-.5-.9,0,0-.3-.4-.3-.5-.4-.5-.8-.9-1.3-1.3,0,0,0,0,0,0-.1,0-.2-.2-.3-.2-.3-.2-.6-.4-.9-.5-.3-.2-.7-.4-1-.5-.2,0-.3-.2-.5-.2,0,0,0,0-.1,0-.6-.2-1.2-.5-1.9-.6-1.5-.4-3-.7-4.6-1-.1,0-.5,0-.5,0-.2,0-.4,0-.5,0-.4,0-.7,0-1.1-.1-.8,0-1.5-.1-2.3-.2-1.5,0-3.1,0-4.6,0-6.5,0-12.3.6-18.5,2.8-3.4,1.2-7,2.9-9.8,5.1-.6.5-1.3,1.1-1.8,1.6-.5.5-1.1,1.2-1.3,1.5-.4.6-.8,1.2-1.1,1.9,0,0-.2.6-.2.7,0,.2-.2,1.1-.2.6,0,.4-.2.8-.3,1.1,0,1.6.4,2.9,1.4,4.3,1,1.5,2.4,2.8,3.6,4.2,1.6,1.9,3,3.8,4.1,6,2.3,4.6,3.6,9.6,4.5,14.6,2.1,11.3,3.9,22.7,5.9,34.1,1.2,6.9,2,19.6,11.6,19.1,2.5-.1,4.9-1.1,7.2-1.9,2.7-1,5.4-2,8.1-3,3.7-1.4,8-3.3,9.2-7.5.6-2.2.5-4.6.3-6.9ZM453.3,554c.5-2.9,2.1-5.4,4.2-7.5,0-.1,0-.2,0-.3-.8-5.7-4.3-10.1-9.3-12.7-4.7-2.5-11.2-3.3-16.2-.4,0,.7-.1,1.5-.3,2.2-.7,2.7-2.1,5.2-3,7.8-.9,2.5-1.5,5.1-1.8,7.8-1.6,11.7,1.3,23.3,3.9,34.7,1.3,5.8,2.6,11.7,3.1,17.7,0,.8,0,1.6,0,2.4,4.6-1.4,9.2-3.1,13-6.1,1.9-1.5,3.5-3.3,4.6-5.5,1.5-2.9,1.7-6.3,1.7-9.5,0-6.8-.2-13.7-.2-20.5,0-3.3-.3-6.8.3-10ZM458,589.9c11.8,2.1,22.3-6.2,26.8-16.6,2.1-4.9,3.4-10.7,2-16-1.2-4.5-4.3-8.1-8.4-10.2-4-2-9-1.9-13.1,0-2,1-3.9,2.3-5.3,4.1-1.7,2.2-1.9,4.8-1.9,7.5,0,6.4.2,12.8.2,19.1,0,3.9.3,8-.3,11.9Z"/>
          <path class="cls-2" d="M422.7,582.6c-3.8-13.2-4.7-27.3-2.6-40.8.6-3.9,1.5-7.7,2.6-11.5.5-1.6-2-2.2-2.4-.7-3.9,13.6-4.8,28.1-2.6,42.1.6,3.9,1.5,7.8,2.6,11.6.5,1.6,2.9.9,2.4-.7Z"/>
          <path class="cls-2" d="M423.6,591.1c-.2-.2-.6-.4-.9-.4-.6,0-1.3.6-1.3,1.3l.4,4.1c0,.3.1.6.4.9.2.2.6.4.9.4.6,0,1.3-.6,1.3-1.3-.1-1.4-.3-2.7-.4-4.1,0-.3-.1-.6-.4-.9Z"/>
          <path class="cls-2" d="M413.1,539.8c-.7,0-1.2.6-1.3,1.3-.1,3.6-.3,7.1-.4,10.7,0,.7.6,1.3,1.3,1.3s1.2-.6,1.3-1.3c.1-3.6.3-7.1.4-10.7,0-.7-.6-1.3-1.3-1.3Z"/>
          <path class="cls-2" d="M448.8,540.3c-1.9,8.5-2.6,17.3-2.2,26,.1,2.5.3,5,.6,7.4,0,.7.5,1.3,1.3,1.3s1.3-.6,1.3-1.3c-1-8.5-1-17.1.2-25.5.3-2.4.8-4.8,1.3-7.2.3-1.6-2.1-2.3-2.4-.7Z"/>
          <path class="cls-2" d="M449.2,580.7c-.7,0-1.3.6-1.3,1.3v6.2c0,.7.6,1.3,1.3,1.3.7,0,1.3-.6,1.3-1.3v-6.2c0-.7-.6-1.3-1.3-1.3Z"/>
          <path class="cls-2" d="M364.7,585.4c0-.7-.5-1.3-1.3-1.3s-1.3.6-1.3,1.3c.8,7,1.8,14.7,7,19.9,1.2,1.1,2.9-.6,1.8-1.8-4.7-4.7-5.6-11.8-6.3-18.1Z"/>
          <path class="cls-2" d="M378.3,607.9c-.1,0-.2,0-.4,0-.3,0-.5-.1-.8-.2-.2-.1-.5-.3-.7-.4-.1,0-.2-.2-.3-.3-.5-.5-1.3-.5-1.8,0-.5.5-.5,1.3,0,1.8,1,1.1,2.5,1.7,4,1.7.7,0,1.3-.6,1.3-1.3,0-.7-.6-1.3-1.3-1.3Z"/>
          <path class="cls-2" d="M459.6,524.8c-.2-.1-.3-.3-.3-.5,0-.2,0-.4.3-.5,3.5-2.6,6.3-6.2,7.9-10.3,0-.2.3-.4.6-.4h0c.3,0,.5.2.6.4,1.6,4.1,4.4,7.6,7.9,10.3.2.1.3.3.3.5,0,.2,0,.4-.3.5-3.5,2.6-6.3,6.2-7.9,10.3,0,.2-.3.4-.6.4h0c-.3,0-.5-.2-.6-.4-1.6-4.1-4.4-7.6-7.9-10.3ZM461,524.3c3,2.4,5.5,5.5,7.1,8.9,1.6-3.5,4.1-6.5,7.1-8.9-3-2.4-5.5-5.5-7.1-9-1.6,3.5-4.1,6.5-7.1,9Z"/>
          <path class="cls-2" d="M443.5,511.2c-.2-.1-.3-.3-.3-.5,0-.2,0-.4.3-.5,1.7-1.2,3-2.9,3.7-4.9,0-.2.3-.4.6-.4h0c.3,0,.5.2.6.4.8,1.9,2.1,3.6,3.7,4.9.2.1.3.3.3.5,0,.2,0,.4-.3.5-1.7,1.2-3,2.9-3.7,4.8,0,.2-.3.4-.6.4h0c-.3,0-.5-.2-.6-.4-.8-1.9-2.1-3.6-3.7-4.8ZM444.9,510.7c1.2,1,2.2,2.2,2.9,3.6.7-1.4,1.7-2.6,2.9-3.6-1.2-1-2.2-2.3-2.9-3.6-.7,1.4-1.7,2.6-2.9,3.6Z"/>
          <path class="cls-2" d="M260.9,620.8c-.2-.1-.3-.3-.3-.5,0-.2,0-.4.3-.5,3.5-2.6,6.3-6.2,7.9-10.3,0-.2.3-.4.6-.4h0c.3,0,.5.2.6.4,1.6,4.1,4.4,7.6,7.9,10.3.2.1.3.3.3.5,0,.2,0,.4-.3.5-3.5,2.6-6.3,6.2-7.9,10.3,0,.2-.3.4-.6.4h0c-.3,0-.5-.2-.6-.4-1.6-4.1-4.4-7.6-7.9-10.3ZM262.3,620.3c3,2.4,5.5,5.5,7.1,8.9,1.6-3.5,4.1-6.5,7.1-8.9-3-2.4-5.5-5.5-7.1-9-1.6,3.5-4.1,6.5-7.1,9Z"/>
          <path class="cls-2" d="M241,621.5c.2.1.3.3.3.5,0,.2,0,.4-.3.5-1.7,1.2-3,2.9-3.7,4.8,0,.2-.3.4-.6.4h0c-.3,0-.5-.2-.6-.4-.8-1.9-2.1-3.6-3.7-4.8-.2-.1-.3-.3-.3-.5,0-.2,0-.4.3-.5,1.7-1.2,3-2.9,3.7-4.9,0-.2.3-.4.6-.4h0c.3,0,.5.2.6.4.8,1.9,2.1,3.6,3.7,4.9ZM239.6,622c-1.2-1-2.2-2.3-2.9-3.6-.7,1.4-1.7,2.6-2.9,3.6,1.2,1,2.2,2.2,2.9,3.6.7-1.4,1.7-2.6,2.9-3.6Z"/>
          <path class="cls-2" d="M255.7,631.5c1.8,0,3.3,1.5,3.3,3.3s-1.5,3.3-3.3,3.3-3.3-1.5-3.3-3.3,1.5-3.3,3.3-3.3ZM255.7,632.7c-1.2,0-2.1.9-2.1,2.1s.9,2.1,2.1,2.1,2.1-.9,2.1-2.1-.9-2.1-2.1-2.1Z"/>
          <path class="cls-2" d="M248.4,532.4c.7,0,1.3-.6,1.3-1.3v-4c0-.7-.6-1.3-1.3-1.3-.7,0-1.3.6-1.3,1.3v4c0,.7.6,1.3,1.3,1.3Z"/>
          <path class="cls-2" d="M248.4,543.6c.7,0,1.3-.6,1.3-1.3v-4c0-.7-.6-1.3-1.3-1.3-.7,0-1.3.6-1.3,1.3v4c0,.7.6,1.3,1.3,1.3Z"/>
          <path class="cls-2" d="M252.1,536h4c.7,0,1.3-.6,1.3-1.3,0-.7-.6-1.3-1.3-1.3h-4c-.7,0-1.3.6-1.3,1.3,0,.7.6,1.3,1.3,1.3Z"/>
          <path class="cls-2" d="M244.8,533.5h-4c-.7,0-1.3.6-1.3,1.3,0,.7.6,1.3,1.3,1.3h4c.7,0,1.3-.6,1.3-1.3,0-.7-.6-1.3-1.3-1.3Z"/>
          <path class="cls-2" d="M313.7,510.8c0-2.5,2-4.5,4.5-4.5s4.5,2,4.5,4.5-2,4.5-4.5,4.5-4.5-2-4.5-4.5ZM316.3,510.8c0,1.1.9,2,2,2s2-.9,2-2-.9-2-2-2-2,.9-2,2Z"/>
          <path class="cls-2" d="M547.6,618.6c0-2.5,2-4.5,4.5-4.5s4.5,2,4.5,4.5-2,4.5-4.5,4.5-4.5-2-4.5-4.5ZM550.1,618.6c0,1.1.9,2,2,2s2-.9,2-2-.9-2-2-2-2,.9-2,2Z"/>
        </g>
        <g>
          <path class="cls-2" d="M82.5,510.4c.2.1.3.3.3.5,0,.2,0,.4-.3.5-1.7,1.2-3,2.9-3.7,4.8,0,.2-.3.4-.6.4h0c-.3,0-.5-.2-.6-.4-.8-1.9-2.1-3.6-3.7-4.8-.2-.1-.3-.3-.3-.5,0-.2,0-.4.3-.5,1.7-1.2,3-2.9,3.7-4.9,0-.2.3-.4.6-.4h0c.3,0,.5.2.6.4.8,1.9,2.1,3.6,3.7,4.9ZM81.1,510.9c-1.2-1-2.2-2.3-2.9-3.6-.7,1.4-1.7,2.6-2.9,3.6,1.2,1,2.2,2.2,2.9,3.6.7-1.4,1.7-2.6,2.9-3.6Z"/>
          <path class="cls-2" d="M160.4,588.7c-.1,0-.3.1-.4.2-10.3,3.3-20.9,5.4-31.6,6.4-9.4.9-18.9.9-28.3,0-4.7-.5-9.5-1.1-14.1-2.1-2.2-.5-4.1-1.4-5.4-3.3-1.3-1.8-2-4.1-2.9-6.2-3.7-8.7-6.6-17.8-8.8-27-.5-2.1-1.2-4.3-.8-6.5.4-2.3,2.2-3.8,4.4-4.4,2.2-.5,4.6-.7,6.9-1,2.3-.3,4.5-.6,6.8-.9-1.6-5.7,0-12,4.8-16,1.7-1.4,3.5-2.3,5.5-2.9-1.1-4.7.2-9.9,3.5-13.4,2.4-2.6,5.6-4,9.1-4.4-.6-2.2-.6-4.5,0-6.7,1.1-3.2,3.3-5.6,6.5-6.9,2.7-1.1,5.2-2.1,6.9-4.7,1.4-2.1,2.3-4.8,1.9-7.4-.3-2,1.1-3.4,3.1-3.1,5,.7,9.5,4.1,11.8,8.6.3.6.3,1.2.2,1.7,2.1-.6,4.2-.9,6.4-.9.4,0,.7,0,1.1,0,1-.9,2-1.8,3-2.6,1.1-.8,2.5-1.1,3.6,0,.9.9,1.1,2.7,0,3.6-.2.1-.4.3-.5.4,4.3,1.7,8,4.9,10,9.3,2.4,5.4,2.5,11.9,0,17.2,1.7,0,3.4.4,4.9,1.4,5.1,3.2,7.1,9.9,6,15.6-.6,3.1-2.3,6-4.7,8-1.8,1.5-3.9,2.5-6.1,3.2,3.3.8,5.9,3.4,7.2,6.7,1.6,4.1,1.1,8.7,1,12.9-.1,3.7,0,7.5-.7,11.2-1,6.1-4.1,12-10.3,13.8ZM79.6,575.1c6.3.9,12.7,1.8,19.1,2.5,11.3,1.2,22.8,1.8,34.2.7,11.3-1.1,22.4-4.1,32.6-9.2.3-.1.5-.2.8-.1,0-1.9.1-3.9.2-5.8,0-.8,0-1.6,0-2.4-5.2,3.4-11,5.9-17,7.6-5.7,1.6-11.5,2.4-17.4,3.1-6.2.7-12.5,1.4-18.8,1.5-12.1.2-24.2-1.3-35.9-4.3.6,2,1.3,3.9,2,5.9,0,.2.1.4.2.6ZM167.4,535.7c0,0,.2-.3,0,0h0ZM152.5,494.6c-1.2-.6-2.4-1-3.7-1.3-3.1,3.1-5.8,6.6-8,10.4,3.7.9,7.3,2.6,10.3,5.2,2.4,2.1,4.4,4.7,5.7,7.6,0,0,0,0,0-.1,1.9-2.5,3-5.5,3-8.6.1-5.5-2.5-10.6-7.4-13.2ZM115.8,530.7c.9,3.9,5,6.5,8.4,8.1,4.4,2.1,9.9,2.8,14.7,2.7,3.7-.1,7.2-1.3,10-3.9,2.5-2.3,4.2-5.4,4.9-8.7,1.5-6.9-2.5-14.3-8.4-17.9-2.1-1.3-4.5-2.2-6.9-2.6-.9,1.9-1.6,3.8-2.2,5.8-1,3.1-5.8,1.8-4.9-1.3.5-1.6,1.1-3.1,1.7-4.6-3.5.3-6.9,1.4-9.8,3.3-5.7,3.6-9.9,10.8-8.3,17.6,0,.1,0,.2,0,.3.3.3.6.7.7,1.3ZM101.5,524.2c2.8,0,5.6.6,8.1,1.8,0-8.6,6-16.8,13.8-20.4,3.8-1.7,7.9-2.6,12-2.5,1.8-3.4,4-6.7,6.5-9.7-1.7.4-3.3,1.1-4.7,2.1-1.1.8-2.8.2-3.5-.9-.7-1.2-.2-2.7.9-3.5.3-.2.7-.5,1.1-.7-.3-.2-.5-.5-.7-.9-1.2-2.5-3.2-4.3-5.6-5.3-.5,4.9-3.1,9.4-7.4,12-2.4,1.5-5.7,1.7-7.3,4.2-1.2,1.9-1.4,4.3-.3,6.3.2.4.3.8.3,1.2.5.6.7,1.6.5,2.3-.3,1.4-1.8,2-3.1,1.8-.1,0-.2,0-.2,0,0,0,0,0-.1,0-.2,0-.5,0-.7,0-.5,0-1,0-1.5,0,0,0,0,0-.1,0,0,0,0,0-.1,0-.2,0-.4,0-.7.1-.4,0-.9.2-1.3.4-.2,0-.3.1-.5.2,0,0-.3.1-.4.2-.4.2-.8.4-1.2.7-.2.1-.4.3-.6.4,0,0,0,0,0,0,0,0,0,0-.1.1-.3.3-.7.6-1,.9-.1.1-.2.3-.3.4,0,0-.2.3-.3.3-.3.4-.5.8-.7,1.2-.1.2-.2.4-.3.6,0,0,0,0,0,.1,0,0,0,0,0,.1-.2.5-.3.9-.4,1.4,0,.2-.1.4-.1.7,0,0,0,.2,0,.3,0,.4,0,.9,0,1.3,0,.5,0,.9,0,1.4,0,0,0,.3,0,.3,0,.2,0,.4.2.7,0,.1,0,.2,0,.3ZM94.9,548.7c4.9,4.8,12.2,5.6,18.7,5.3,14.6-.7,29.2-5.4,41.8-12.6,0,0,.2,0,.3-.1.5-.7,1.2-1.1,2.1-1.2,1,0,1.7-.2,2.9-.4.5-.1,1-.2,1.4-.4.2,0,.4-.2.7-.2,0,0,.3-.1.4-.1.7-.3,1.3-.7,2-1.1.2-.1.4-.3.6-.4,0,0,0,0,0,0,.3-.2.6-.5.9-.8.3-.3.5-.5.8-.8,0-.1.2-.2.3-.4.3-.5.6-1,.9-1.5,0,0,0,0,0,0,0,0,0,0,0,0,0-.1.1-.3.2-.4,0-.2.2-.5.2-.7,0-.3.1-.6.2-.8,0-.2,0-.5,0-.6,0-.5,0-1.1,0-1.6,0-.3,0-.6,0-.8,0-.1,0-.2,0-.4-.1-.6-.2-1.2-.4-1.8,0-.3-.2-.5-.3-.8,0-.1,0-.2-.1-.3,0,0,0,0,0,0-.3-.5-.5-1-.8-1.5-.1-.2-.3-.4-.4-.6,0,0,0,0,0,0,0,0,0,0-.1-.1-.4-.4-.8-.7-1.1-1.1,0,0-.1-.1-.2-.1-.2-.1-.4-.3-.6-.4-.1,0-.2-.1-.4-.2-.2,0-.4-.1-.6-.2-.2,0-.5,0-.7-.2.8.2,0,0-.2,0-.3,0-.6,0-.9,0,0,0,0,0,.1,0,0,0-.1,0-.2,0,0,0,0,0,0,0-.1,0-.3,0-.1,0,0,0,0,0-.1,0-.3,0-.5.1-.8.2-.2,0-1,.4-.4.1-.7.3-1.5.4-2.1.2.8,3.8.6,7.9-.9,11.6-1.6,4.1-4.4,7.7-8.1,10.2-4.4,2.9-9.6,3.5-14.7,3-5.2-.5-10.5-1.5-15-4.2-3.8-2.2-7.5-5.3-8.8-9.7-.3,0-.6-.1-.9-.3-5.4-3.9-13.7-4.3-17.8,1.7-3.4,4.9-1.4,10.9,2.6,14.8ZM73.6,554.9c.5,2.3,1.1,4.7,1.8,7,.4,1.3.8,2.6,1.2,3.9,6.5,1.8,13.1,3,19.8,3.8,6.4.7,12.8,1,19.3.8,6.1-.2,12.3-.9,18.4-1.7,5.6-.7,11.3-1.7,16.7-3.3,5.6-1.7,10.8-4.2,15.6-7.5,0,0,.1,0,.2-.1,0-.6,0-1.2,0-1.7-.1-1.8-.5-3.8-1.7-5.3-.8-1-2.3-2.1-3.7-1.9-1.4.2-2.7-.3-3.1-1.8-.1-.4,0-.9,0-1.3-8.3,4.7-17.2,8.3-26.4,10.6-13.7,3.4-34.4,6.4-43.2-7.6-2.6.4-5.2.7-7.8,1.1-2.3.3-4.9.4-7.2,1.1,0,0-.2,0-.2.1,0,0-.1.2-.1.2,0,.2,0,.5,0,.8,0,1,.4,2,.6,3ZM157.6,584.4c.2-.1.4-.2.7-.3,5.6-1.3,7.3-7.1,7.7-12.4-5.7,2.8-11.7,5.1-17.9,6.6-11.2,2.8-22.8,3.5-34.2,3-11.2-.4-22.2-1.9-33.3-3.5,1.1,2.9,2.2,5.7,3.6,8.4.8,1.6,1.9,1.9,3.6,2.2,2.1.4,4.3.8,6.4,1.1,4.2.6,8.5,1,12.8,1.2,17.1.9,34.3-1.3,50.6-6.4Z"/>
          <path class="cls-2" d="M162.2,521c0,0-.1,0-.2,0,0,0,.1,0,.2,0,0,0,0,0,0,0Z"/>
          <path class="cls-2" d="M140.1,534c.5.5,1.3.5,1.8,0,1.4-1.4,2.8-2.8,4.1-4.2.5-.5.5-1.3,0-1.8-.5-.5-1.3-.5-1.8,0-1.4,1.4-2.8,2.8-4.1,4.2-.5.5-.5,1.3,0,1.8Z"/>
          <path class="cls-2" d="M139.5,529.5c1.7-.9,3.2-2.2,4.2-3.8.2-.3.2-.7.1-1,0-.3-.3-.6-.6-.8-.6-.3-1.3-.1-1.7.5,0,0-.1.2-.2.3-.5.6-1,1.2-1.7,1.7-.5.3-1,.7-1.5.9-.6.3-.8,1.2-.5,1.7.4.6,1.1.8,1.7.5Z"/>
          <path class="cls-2" d="M179.3,585.7c.9-1.4-1.3-2.6-2.2-1.3-3.6,5.5-9,9.7-15.1,12-.6.2-1.1.9-.9,1.6.2.6.9,1.1,1.6.9,6.8-2.5,12.6-7.1,16.6-13.1Z"/>
          <path class="cls-2" d="M186.5,587.3c-.4-.4-1.4-.5-1.8,0-3.8,4.9-8.4,9-13.6,12.2-1.4.8-.1,3,1.3,2.2,5.4-3.3,10.2-7.6,14.1-12.6.4-.5.5-1.3,0-1.8Z"/>
          <path class="cls-2" d="M63,429.8c-.1.4-.3.8-.5,1.1-4.1,8.8-14.3,12.6-23,15.1,0,0-.2,0-.2,0-.8,2.3-2.2,4.4-4.3,6.1-4.3,3.4-9.9,4.9-14.9,6.7-5.3,2-11.2,4-16.6,1.2-3.9-2-6.1-6-7.4-10-7.8,1.5-16.2,1.5-23.1-2.9-3-1.9-5.5-4.4-7.1-7.6-.4-.7-.7-1.4-1-2.2-9.9,3-17.3-7.5-19.1-15.8-1-4.6-.7-9.3,1.5-13.5,1.9-3.7,5.2-6.6,9.2-7.8.2,0,.4-.1.6-.1.3-4.5,1.6-8.9,3.9-12.8,2.9-5,8-9.3,13.8-9.5-.4-1.3-.7-2.6-.6-4.1,0-.5.2-1,.5-1.4.3-1.6.7-3,1.6-4.4,2-3.3,5.2-5.8,8.5-7.7,3.7-2.2,7.9-3.7,12-4.8,6.4-1.7,13.2-1.9,19.8-1.6,6.3.3,14.2,1.1,18.8,6,.9,1,1.6,2,2.1,3.2,6-2.8,13.5-1.8,19.3,1.1,5.7,2.9,10.2,8.1,11.6,14.3,8.1-4.4,18.8-2.9,25.1,4.4,8.2,9.4,5.6,23.5-.7,33.2-6.4,9.9-17.8,16.1-29.7,14ZM30.6,362.2s0,0,0,0h0ZM-36.7,432.6c-.2-.9-.4-1.8-.6-2.7-.6-3.4-1-6.9-1.9-10.2-1-3.7-2.4-7.3-3.2-11-.2-1.1-.4-2.2-.5-3.4-5.8,2.3-7.7,9.2-6.5,14.9,1.2,5.5,5.8,14.3,12.7,12.4ZM-5.2,445.2c-.8-3.8-1.3-7.7-1.9-11.4-1.1-6.2-2.1-12.4-3.2-18.6-.9-5.5-1.7-11.1-3.2-16.6-1.3-4.9-3.3-9.4-6.7-13.3-.7-.8-1.4-1.6-2.1-2.4-.3,0-.7,0-1.1,0-6.3-1.5-11.4,5.6-13.2,10.7-1,2.9-1.6,5.8-1.5,8.9,0,3.4.9,6.6,1.9,9.8,1,3.1,2,6.2,2.6,9.4.6,3.1,1,6.2,1.6,9.2.6,2.8,1.5,5.4,3,7.8,1.6,2.4,3.9,4.1,6.4,5.4,5.4,2.6,11.5,2.4,17.3,1.3ZM35,437.1c-.3-2.7-.8-5.5-1.3-8.2-1.1-5.5-2.5-11-3.6-16.5-2.2-10.6-3.6-21.8-.9-32.5.6-2.6,1.6-5.1,2.7-7.5.5-1.2,1-2.4,1.3-3.7.1-.5.2-.9.2-1.4,0,0,0-.8,0-.8,0-.3-.1-.7-.2-1,0-.1,0-.3-.1-.4,0,0,0,0,0,0,0,0,0,0,0,0-.1-.3-.3-.6-.5-.9,0,0-.3-.4-.3-.5-.4-.5-.8-.9-1.3-1.3,0,0,0,0,0,0-.1,0-.2-.2-.3-.2-.3-.2-.6-.4-.9-.5-.3-.2-.7-.4-1-.5-.2,0-.3-.2-.5-.2,0,0,0,0-.1,0-.6-.2-1.2-.5-1.9-.6-1.5-.4-3-.7-4.6-1-.1,0-.5,0-.5,0-.2,0-.4,0-.5,0-.4,0-.7,0-1.1-.1-.8,0-1.5-.1-2.3-.2-1.5,0-3.1,0-4.6,0-6.5,0-12.3.6-18.5,2.8-3.4,1.2-7,2.9-9.8,5.1-.6.5-1.3,1.1-1.8,1.6-.5.5-1.1,1.2-1.3,1.5-.4.6-.8,1.2-1.1,1.9,0,0-.2.6-.2.7,0,.2-.2,1.1-.2.6,0,.4-.2.8-.3,1.1,0,1.6.4,2.9,1.4,4.3,1,1.5,2.4,2.8,3.6,4.2,1.6,1.9,3,3.8,4.1,6,2.3,4.6,3.6,9.6,4.5,14.6,2.1,11.3,3.9,22.7,5.9,34.1,1.2,6.9,2,19.6,11.6,19.1,2.5-.1,4.9-1.1,7.2-1.9,2.7-1,5.4-2,8.1-3,3.7-1.4,8-3.3,9.2-7.5.6-2.2.5-4.6.3-6.9ZM59.6,389c.5-2.9,2.1-5.4,4.2-7.5,0-.1,0-.2,0-.3-.8-5.7-4.3-10.1-9.3-12.7-4.7-2.5-11.2-3.3-16.2-.4,0,.7-.1,1.5-.3,2.2-.7,2.7-2.1,5.2-3,7.8-.9,2.5-1.5,5.1-1.8,7.8-1.6,11.7,1.3,23.3,3.9,34.7,1.3,5.8,2.6,11.7,3.1,17.7,0,.8,0,1.6,0,2.4,4.6-1.4,9.2-3.1,13-6.1,1.9-1.5,3.5-3.3,4.6-5.5,1.5-2.9,1.7-6.3,1.7-9.5,0-6.8-.2-13.7-.2-20.5,0-3.3-.3-6.8.3-10ZM64.2,424.9c11.8,2.1,22.3-6.2,26.8-16.6,2.1-4.9,3.4-10.7,2-16-1.2-4.5-4.3-8.1-8.4-10.2-4-2-9-1.9-13.1,0-2,1-3.9,2.3-5.3,4.1-1.7,2.2-1.9,4.8-1.9,7.5,0,6.4.2,12.8.2,19.1,0,3.9.3,8-.3,11.9Z"/>
          <path class="cls-2" d="M29,417.6c-3.8-13.2-4.7-27.3-2.6-40.8.6-3.9,1.5-7.7,2.6-11.5.5-1.6-2-2.2-2.4-.7-3.9,13.6-4.8,28.1-2.6,42.1.6,3.9,1.5,7.8,2.6,11.6.5,1.6,2.9.9,2.4-.7Z"/>
          <path class="cls-2" d="M29.9,426.1c-.2-.2-.6-.4-.9-.4-.6,0-1.3.6-1.3,1.3l.4,4.1c0,.3.1.6.4.9.2.2.6.4.9.4.6,0,1.3-.6,1.3-1.3-.1-1.4-.3-2.7-.4-4.1,0-.3-.1-.6-.4-.9Z"/>
          <path class="cls-2" d="M19.4,374.8c-.7,0-1.2.6-1.3,1.3-.1,3.6-.3,7.1-.4,10.7,0,.7.6,1.3,1.3,1.3s1.2-.6,1.3-1.3c.1-3.6.3-7.1.4-10.7,0-.7-.6-1.3-1.3-1.3Z"/>
          <path class="cls-2" d="M55,375.3c-1.9,8.5-2.6,17.3-2.2,26,.1,2.5.3,5,.6,7.4,0,.7.5,1.3,1.3,1.3s1.3-.6,1.3-1.3c-1-8.5-1-17.1.2-25.5.3-2.4.8-4.8,1.3-7.2.3-1.6-2.1-2.3-2.4-.7Z"/>
          <path class="cls-2" d="M55.5,415.7c-.7,0-1.3.6-1.3,1.3v6.2c0,.7.6,1.3,1.3,1.3.7,0,1.3-.6,1.3-1.3v-6.2c0-.7-.6-1.3-1.3-1.3Z"/>
          <path class="cls-2" d="M65.9,359.8c-.2-.1-.3-.3-.3-.5,0-.2,0-.4.3-.5,3.5-2.6,6.3-6.2,7.9-10.3,0-.2.3-.4.6-.4h0c.3,0,.5.2.6.4,1.6,4.1,4.4,7.6,7.9,10.3.2.1.3.3.3.5,0,.2,0,.4-.3.5-3.5,2.6-6.3,6.2-7.9,10.3,0,.2-.3.4-.6.4h0c-.3,0-.5-.2-.6-.4-1.6-4.1-4.4-7.6-7.9-10.3ZM67.3,359.3c3,2.4,5.5,5.5,7.1,8.9,1.6-3.5,4.1-6.5,7.1-8.9-3-2.4-5.5-5.5-7.1-9-1.6,3.5-4.1,6.5-7.1,9Z"/>
          <path class="cls-2" d="M49.8,346.2c-.2-.1-.3-.3-.3-.5,0-.2,0-.4.3-.5,1.7-1.2,3-2.9,3.7-4.9,0-.2.3-.4.6-.4h0c.3,0,.5.2.6.4.8,1.9,2.1,3.6,3.7,4.9.2.1.3.3.3.5,0,.2,0,.4-.3.5-1.7,1.2-3,2.9-3.7,4.8,0,.2-.3.4-.6.4h0c-.3,0-.5-.2-.6-.4-.8-1.9-2.1-3.6-3.7-4.8ZM51.2,345.7c1.2,1,2.2,2.2,2.9,3.6.7-1.4,1.7-2.6,2.9-3.6-1.2-1-2.2-2.3-2.9-3.6-.7,1.4-1.7,2.6-2.9,3.6Z"/>
          <path class="cls-2" d="M32.6,601.6c-.7,0-1.3.6-1.3,1.3v4c0,.7.6,1.3,1.3,1.3.7,0,1.3-.6,1.3-1.3v-4c0-.7-.6-1.3-1.3-1.3Z"/>
          <path class="cls-2" d="M32.6,612.8c-.7,0-1.3.6-1.3,1.3v4c0,.7.6,1.3,1.3,1.3.7,0,1.3-.6,1.3-1.3v-4c0-.7-.6-1.3-1.3-1.3Z"/>
          <path class="cls-2" d="M40.2,609.2h-4c-.7,0-1.3.6-1.3,1.3,0,.7.6,1.3,1.3,1.3h4c.7,0,1.3-.6,1.3-1.3,0-.7-.6-1.3-1.3-1.3Z"/>
          <path class="cls-2" d="M29,609.2h-4c-.7,0-1.3.6-1.3,1.3,0,.7.6,1.3,1.3,1.3h4c.7,0,1.3-.6,1.3-1.3,0-.7-.6-1.3-1.3-1.3Z"/>
          <path class="cls-2" d="M153.8,453.7c0-2.5,2-4.5,4.5-4.5s4.5,2,4.5,4.5-2,4.5-4.5,4.5-4.5-2-4.5-4.5ZM156.4,453.7c0,1.1.9,2,2,2s2-.9,2-2-.9-2-2-2-2,.9-2,2Z"/>
        </g>
        <g>
          <path class="cls-2" d="M759.9,231.6c5.5,4.9,10.4,10.7,13.3,17.6,2.5,5.9,2.9,12.4,1,18.6-1.5,4.8-4.2,9.2-8,12.4,0,.4,0,.8,0,1.1-.6,8.9-1.7,18.2-5.7,26.3-1.9,3.8-4.7,7.3-8.4,9.6-4.1,2.5-9.1,3.2-13.8,2.6-16.6-2-33.2-4.6-49.8-7.4-7.3-1.2-14.8-2.2-21.9-4.2-6.2-1.7-12.2-4.6-16.1-9.8-8.3-11.1-5.2-26-3.2-38.6-2.8-2.3-5-5.4-6.1-9-3.9-12.1,6.5-22.7,15.6-29,4.5-3.2,9.5-5.9,14.7-7.8,5.7-2,12-3.1,18-3.4-.1-.5-.2-1-.3-1.5-.7-5.3.2-11,3.5-15.4.4-.5.8-.8,1.3-1.1.1-.3.3-.6.6-.9.2-.2.4-.3.5-.5-2-2.4-2.6-5.7-1.2-8.7,1.5-3.1,5.1-4.6,8.5-4.1,1.4.2,3,.9,4,2,.2-.9.5-1.8.8-2.6,1.5-3.3,5.3-5.2,8.8-4.5,1.9.4,3.6,1.6,4.7,3.2,2.4-1.5,5.3-2,8-.6,3.2,1.7,4.9,6.2,3.1,9.4,3.1,1.7,5.7,4.1,7.2,7.4.1.3.3.6.4,1,0-.8.4-1.7,1.2-2,4.4-1.9,9.2-1.9,13.5-.4,2.4-3,6.5-4.7,10.2-3.1,2.6,1.1,4.4,3.8,4.6,6.6,1.3.4,2.5,1.3,3.3,2.5.9,1.4,1.1,3,.7,4.5,2.7,1.4,4.9,4,5,7.2.2,4.3-4,8.1-8.2,7-.3,0-.6-.2-.8-.4-.3,4.1-1.5,8.1-4,11.5-1.4,1.8-3,3.4-4.9,4.6ZM764,199c2.6,3.6,4.2,8.1,4.7,12.6.5-.5,1.3-.8,2.2-.5.1,0,.2,0,.3,0,.2,0,.4-.1.4-.1.2,0,.5-.3.6-.6.4-.6.6-1.2.4-1.8-.4-1.7-2.4-2.7-4.1-3.1-1.9-.4-2.4-2.9-1.1-4.2.4-.4.5-1,.3-1.5-.3-.5-1-.5-1.5-.4-.8.3-1.7,0-2.2-.5ZM758.6,193.6c.7.5,1.4,1,2.1,1.6,1,.8,1.8,1.8,2.6,2.8-.3-.7-.3-1.5.1-2.2.3-.5.3-1,0-1.6-.3-.7-.9-1.3-1.4-1.5-1.3-.4-2.5,0-3.5.9ZM732.6,192.4c-2.8-3.1-7.1-4.5-11.2-5-8.5-.9-17.5,1.6-23.4,7.9-.3.3-.6.5-.9.6,0,.1,0,.2-.2.3-2.9,4-3.7,9.1-2.5,13.9,1.2,5,4.3,9.4,8,13,6.3,6.1,16.5,12,25,6.7,8.4-5.2,8.6-16.8,8.4-25.5,0-4.1-.3-8.8-3.3-12ZM721.7,182.3s0,0,0,0c1.6.2,3.2.5,4.7.9.2,0,.3,0,.5.1.5-.7.6-1,.3-1.8-.2-.5-.6-1.1-1.2-1.3-1.5-.6-3.4.6-4.2,2ZM710.7,182.8s0,0,0,.1c2.2-.5,4.4-.7,6.6-.8-.2-.3-.3-.7-.3-1.1,0-2.4-2.7-3.6-4.5-2.1-1.2.9-1.1,2.6-1.7,3.9ZM698.7,188c1.6-1.2,3.4-2.1,5.3-3-.2-.1-.4-.3-.6-.5-.4-.3-.8-.8-1.2-1-.9-.4-2-.4-2.8,0-1.5.8-1.8,3.1-.6,4.3ZM651.8,262.6c-.5,3-1,6.2-1.4,9.4,2.6,2.3,5.6,4.1,8.7,5.5,3.6,1.6,7.4,2.4,11.3,3.3,15,3.7,30,7.3,45.3,9.5,14.7,2.1,29.7,2.7,44.4,1,.4-2.6.7-5.3.9-7.9-8.2,3.3-18.7.5-23.2-7.1-.3.2-.6.5-.9.7-10.1,7.5-25.6,6-33.9-3.5-.9-1-1.9-2.5-3.2-2.9-1.3-.4-2.7,1.1-3.8,1.7-2.7,1.6-5.8,2.4-8.9,2.4-6.3,0-12.7-3.1-16.2-8.4-.8-1.2-1.2-2.6-2-3.7-.5-.6-.7-.3-1.5,0-.8.3-1.5.6-2.3.9-3.2,1-6.8,1-10.1.2-1.1-.3-2.2-.6-3.2-1.1ZM759.6,293.9c-8.1,1-16.4,1.2-24.6.8-15.4-.7-30.7-3.4-45.7-6.8-7.7-1.7-15.5-3.6-23.2-5.5-5.8-1.4-11.4-3.7-16.1-7.3-.2,2-.2,4.1-.2,6,4.9,3.5,10.5,6,16.1,7.9,6.4,2.2,13,3.7,19.6,5.1,7,1.4,14,2.8,21,4,8.6,1.4,17.3,2.3,26,2.9,8.3.5,16.7.6,25,.3.9-2.5,1.5-4.9,2-7.3ZM756.6,303.8c-.4,0-.8,0-1.2,0-8.8.2-17.7,0-26.5-.6-8.8-.7-17.6-1.7-26.2-3.3-6.8-1.2-13.7-2.5-20.5-4-6.7-1.4-13.3-3.1-19.7-5.5-4.3-1.6-8.5-3.6-12.3-6.1.7,5.5,2.7,10.6,7.4,14.2,4.6,3.6,10.6,5,16.2,6.1,7.5,1.5,15.1,2.7,22.6,4,7.8,1.3,15.6,2.5,23.4,3.6,3.8.6,7.7,1.1,11.6,1.6,3.3.4,6.6,1.1,9.9,1.1,2.2,0,3.7-.2,5.9-1,.2,0,.3-.1.5-.2-.2.1-.2,0,0,0,.2,0,.4-.2.7-.3.4-.2.8-.4,1.2-.7.4-.2.7-.5,1.1-.8,0,0,.6-.5.6-.5,2.4-2.1,4.1-4.9,5.3-7.7ZM755.3,234c-2.1.9-4.3,1.5-6.6,1.8-5.8,1-12.1.6-17.1-2.9-1.7,1.4-3.7,2.4-5.8,3.1-11.2,3.4-22.7-3.9-29.7-12.2-2.2-2.6-4-5.4-5.3-8.5-.2,0-.5.2-.8.2-1.2,0-2.4.2-3.6.3-3.1.4-6.1.9-9.1,1.6-1.5.3-2.9.7-4.3,1.2-1.3.4-2,.8-3,1.2-4.8,2.2-9.4,4.9-13.5,8.2-4.1,3.3-8.1,7.2-10.1,12.1-.8,2-1.2,4.1-1,6.5,0,.8.4,2.2.8,3.3.4,1.2,1.1,2.5,1.9,3.6,3.2,4.3,9.3,6.5,14.6,5.3,1.6-.4,3.1-1.3,4.7-1.6,2.1-.4,4,.3,5.3,2,1,1.2,1.5,2.7,2.3,4,.7,1.1,1.5,2,2.4,2.8,3.8,3.4,9.6,4.4,14.4,2.6,1.2-.5,2.4-1.4,3.6-2.1,1.7-1,3.6-1.5,5.6-1.1,3.3.8,5,3.9,7.3,6.1,7.8,7.3,21.6,6.5,28.6-1.6,1.3-1.5,3.7-.6,4.2,1.1,1.3,4.6,5.5,7.4,10.2,8.3,3.5.7,7.2-.2,10.3-2.2.3-.7,1-1.1,1.7-1.2,0,0,0,0,0,0,3.8-3.3,6-8,6.9-12.9,2-11.4-6.2-21.6-14.2-28.6-.2-.2-.4-.4-.5-.7ZM761.3,223.1c2.2-3.7,3-8.4,2.2-12.6-.8-4.7-3.2-9.3-7-12.2-3.7-2.9-9.1-4.2-13.6-2.3-1.1.5-2.3.4-3.1-.4,1.2,4.1,1.1,8.6,1.1,12.8,0,5.9-.7,11.9-3.4,17.3-.6,1.3-1.4,2.5-2.3,3.6,4.2,2.3,9.2,2.4,13.8,1.3,4.8-1.1,9.5-3.2,12.2-7.5Z"/>
          <path class="cls-2" d="M783.6,245.2c-.6.2-1.1.9-.9,1.6,2.3,6.2,2.8,12.9,1.5,19.3-.1.7.2,1.4.9,1.6.6.2,1.4-.2,1.6-.9,1.4-6.9.9-14.1-1.5-20.7-.2-.6-.9-1.1-1.6-.9Z"/>
          <path class="cls-2" d="M778.4,247.8c-.6.4-.7,1.1-.5,1.7,1.3,3.1,1.8,6.4,1.4,9.7,0,.7.6,1.3,1.3,1.3s1.2-.6,1.3-1.3c.4-3.8-.2-7.5-1.7-11-.3-.6-1.2-.8-1.7-.5Z"/>
          <path class="cls-2" d="M850.5,99.8c-.1.4-.3.8-.5,1.1-4.1,8.8-14.3,12.6-23,15.1,0,0-.2,0-.2,0-.8,2.3-2.2,4.4-4.3,6.1-4.3,3.4-9.9,4.9-14.9,6.7-5.3,2-11.2,4-16.6,1.2-3.9-2-6.1-6-7.4-10-7.8,1.5-16.2,1.5-23.1-2.9-3-1.9-5.5-4.4-7.1-7.6-.4-.7-.7-1.4-1-2.2-9.9,3-17.3-7.5-19.1-15.8-1-4.6-.7-9.3,1.5-13.5,1.9-3.7,5.2-6.6,9.2-7.8.2,0,.4-.1.6-.1.3-4.5,1.6-8.9,3.9-12.8,2.9-5,8-9.3,13.8-9.5-.4-1.3-.7-2.6-.6-4.1,0-.5.2-1,.5-1.4.3-1.6.7-3,1.6-4.4,2-3.3,5.2-5.8,8.5-7.7,3.7-2.2,7.9-3.7,12-4.8,6.4-1.7,13.2-1.9,19.8-1.6,6.3.3,14.2,1.1,18.8,6,.9,1,1.6,2,2.1,3.2,6-2.8,13.5-1.8,19.3,1.1,5.7,2.9,10.2,8.1,11.6,14.3,8.1-4.4,18.8-2.9,25.1,4.4,8.2,9.4,5.6,23.5-.7,33.2-6.4,9.9-17.8,16.1-29.7,14ZM818.1,32.2s0,0,0,0h0ZM750.8,102.6c-.2-.9-.4-1.8-.6-2.7-.6-3.4-1-6.9-1.9-10.2-1-3.7-2.4-7.3-3.2-11-.2-1.1-.4-2.2-.5-3.4-5.8,2.3-7.7,9.2-6.5,14.9,1.2,5.5,5.8,14.3,12.7,12.4ZM782.3,115.2c-.8-3.8-1.3-7.7-1.9-11.4-1.1-6.2-2.1-12.4-3.2-18.6-.9-5.5-1.7-11.1-3.2-16.6-1.3-4.9-3.3-9.4-6.7-13.3-.7-.8-1.4-1.6-2.1-2.4-.3,0-.7,0-1.1,0-6.3-1.5-11.4,5.6-13.2,10.7-1,2.9-1.6,5.8-1.5,8.9,0,3.4.9,6.6,1.9,9.8,1,3.1,2,6.2,2.6,9.4.6,3.1,1,6.2,1.6,9.2.6,2.8,1.5,5.4,3,7.8,1.6,2.4,3.9,4.1,6.4,5.4,5.4,2.6,11.5,2.4,17.3,1.3ZM822.4,107.1c-.3-2.7-.8-5.5-1.3-8.2-1.1-5.5-2.5-11-3.6-16.5-2.2-10.6-3.6-21.8-.9-32.5.6-2.6,1.6-5.1,2.7-7.5.5-1.2,1-2.4,1.3-3.7.1-.5.2-.9.2-1.4,0,0,0-.8,0-.8,0-.3-.1-.7-.2-1,0-.1,0-.3-.1-.4,0,0,0,0,0,0,0,0,0,0,0,0-.1-.3-.3-.6-.5-.9,0,0-.3-.4-.3-.5-.4-.5-.8-.9-1.3-1.3,0,0,0,0,0,0-.1,0-.2-.2-.3-.2-.3-.2-.6-.4-.9-.5-.3-.2-.7-.4-1-.5-.2,0-.3-.2-.5-.2,0,0,0,0-.1,0-.6-.2-1.2-.5-1.9-.6-1.5-.4-3-.7-4.6-1-.1,0-.5,0-.5,0-.2,0-.4,0-.5,0-.4,0-.7,0-1.1-.1-.8,0-1.5-.1-2.3-.2-1.5,0-3.1,0-4.6,0-6.5,0-12.3.6-18.5,2.8-3.4,1.2-7,2.9-9.8,5.1-.6.5-1.3,1.1-1.8,1.6-.5.5-1.1,1.2-1.3,1.5-.4.6-.8,1.2-1.1,1.9,0,0-.2.6-.2.7,0,.2-.2,1.1-.2.6,0,.4-.2.8-.3,1.1,0,1.6.4,2.9,1.4,4.3,1,1.5,2.4,2.8,3.6,4.2,1.6,1.9,3,3.8,4.1,6,2.3,4.6,3.6,9.6,4.5,14.6,2.1,11.3,3.9,22.7,5.9,34.1,1.2,6.9,2,19.6,11.6,19.1,2.5-.1,4.9-1.1,7.2-1.9,2.7-1,5.4-2,8.1-3,3.7-1.4,8-3.3,9.2-7.5.6-2.2.5-4.6.3-6.9ZM847.1,59c.5-2.9,2.1-5.4,4.2-7.5,0-.1,0-.2,0-.3-.8-5.7-4.3-10.1-9.3-12.7-4.7-2.5-11.2-3.3-16.2-.4,0,.7-.1,1.5-.3,2.2-.7,2.7-2.1,5.2-3,7.8-.9,2.5-1.5,5.1-1.8,7.8-1.6,11.7,1.3,23.3,3.9,34.7,1.3,5.8,2.6,11.7,3.1,17.7,0,.8,0,1.6,0,2.4,4.6-1.4,9.2-3.1,13-6.1,1.9-1.5,3.5-3.3,4.6-5.5,1.5-2.9,1.7-6.3,1.7-9.5,0-6.8-.2-13.7-.2-20.5,0-3.3-.3-6.8.3-10ZM851.7,94.9c11.8,2.1,22.3-6.2,26.8-16.6,2.1-4.9,3.4-10.7,2-16-1.2-4.5-4.3-8.1-8.4-10.2-4-2-9-1.9-13.1,0-2,1-3.9,2.3-5.3,4.1-1.7,2.2-1.9,4.8-1.9,7.5,0,6.4.2,12.8.2,19.1,0,3.9.3,8-.3,11.9Z"/>
          <path class="cls-2" d="M758.5,90.4c0-.7-.5-1.3-1.3-1.3s-1.3.6-1.3,1.3c.8,7,1.8,14.7,7,19.9,1.2,1.1,2.9-.6,1.8-1.8-4.7-4.7-5.6-11.8-6.3-18.1Z"/>
          <path class="cls-2" d="M772.1,112.9c-.1,0-.2,0-.4,0-.3,0-.5-.1-.8-.2-.2-.1-.5-.3-.7-.4-.1,0-.2-.2-.3-.3-.5-.5-1.3-.5-1.8,0-.5.5-.5,1.3,0,1.8,1,1.1,2.5,1.7,4,1.7.7,0,1.3-.6,1.3-1.3,0-.7-.6-1.3-1.3-1.3Z"/>
          <path class="cls-2" d="M654.6,125.9c-.2-.1-.3-.3-.3-.5,0-.2,0-.4.3-.5,3.5-2.6,6.3-6.2,7.9-10.3,0-.2.3-.4.6-.4h0c.3,0,.5.2.6.4,1.6,4.1,4.4,7.6,7.9,10.3.2.1.3.3.3.5,0,.2,0,.4-.3.5-3.5,2.6-6.3,6.2-7.9,10.3,0,.2-.3.4-.6.4h0c-.3,0-.5-.2-.6-.4-1.6-4.1-4.4-7.6-7.9-10.3ZM656.1,125.4c3,2.4,5.5,5.5,7.1,8.9,1.6-3.5,4.1-6.5,7.1-8.9-3-2.4-5.5-5.5-7.1-9-1.6,3.5-4.1,6.5-7.1,9Z"/>
          <path class="cls-2" d="M634.7,126.5c.2.1.3.3.3.5,0,.2,0,.4-.3.5-1.7,1.2-3,2.9-3.7,4.8,0,.2-.3.4-.6.4h0c-.3,0-.5-.2-.6-.4-.8-1.9-2.1-3.6-3.7-4.8-.2-.1-.3-.3-.3-.5,0-.2,0-.4.3-.5,1.7-1.2,3-2.9,3.7-4.9,0-.2.3-.4.6-.4h0c.3,0,.5.2.6.4.8,1.9,2.1,3.6,3.7,4.9ZM633.3,127c-1.2-1-2.2-2.3-2.9-3.6-.7,1.4-1.7,2.6-2.9,3.6,1.2,1,2.2,2.2,2.9,3.6.7-1.4,1.7-2.6,2.9-3.6Z"/>
          <path class="cls-2" d="M649.4,136.5c1.8,0,3.3,1.5,3.3,3.3s-1.5,3.3-3.3,3.3-3.3-1.5-3.3-3.3,1.5-3.3,3.3-3.3ZM649.4,137.8c-1.2,0-2.1.9-2.1,2.1s.9,2.1,2.1,2.1,2.1-.9,2.1-2.1-.9-2.1-2.1-2.1Z"/>
          <path class="cls-2" d="M642.2,37.4c.7,0,1.3-.6,1.3-1.3v-4c0-.7-.6-1.3-1.3-1.3-.7,0-1.3.6-1.3,1.3v4c0,.7.6,1.3,1.3,1.3Z"/>
          <path class="cls-2" d="M642.2,48.7c.7,0,1.3-.6,1.3-1.3v-4c0-.7-.6-1.3-1.3-1.3-.7,0-1.3.6-1.3,1.3v4c0,.7.6,1.3,1.3,1.3Z"/>
          <path class="cls-2" d="M645.8,41.1h4c.7,0,1.3-.6,1.3-1.3,0-.7-.6-1.3-1.3-1.3h-4c-.7,0-1.3.6-1.3,1.3,0,.7.6,1.3,1.3,1.3Z"/>
          <path class="cls-2" d="M638.6,38.5h-4c-.7,0-1.3.6-1.3,1.3,0,.7.6,1.3,1.3,1.3h4c.7,0,1.3-.6,1.3-1.3,0-.7-.6-1.3-1.3-1.3Z"/>
          <path class="cls-2" d="M609.6,235.6c0,2.5-2,4.5-4.5,4.5s-4.5-2-4.5-4.5,2-4.5,4.5-4.5,4.5,2,4.5,4.5ZM607.1,235.6c0-1.1-.9-2-2-2s-2,.9-2,2,.9,2,2,2,2-.9,2-2Z"/>
          <path class="cls-2" d="M707.5,15.8c0-2.5,2-4.5,4.5-4.5s4.5,2,4.5,4.5-2,4.5-4.5,4.5-4.5-2-4.5-4.5ZM710,15.8c0,1.1.9,2,2,2s2-.9,2-2-.9-2-2-2-2,.9-2,2Z"/>
        </g>
        <g>
          <path class="cls-2" d="M366.2,396.6c5.5,4.9,10.4,10.7,13.3,17.6,2.5,5.9,2.9,12.4,1,18.6-1.5,4.8-4.2,9.2-8,12.4,0,.4,0,.8,0,1.1-.6,8.9-1.7,18.2-5.7,26.3-1.9,3.8-4.7,7.3-8.4,9.6-4.1,2.5-9.1,3.2-13.8,2.6-16.6-2-33.2-4.6-49.8-7.4-7.3-1.2-14.8-2.2-21.9-4.2-6.2-1.7-12.2-4.6-16.1-9.8-8.3-11.1-5.2-26-3.2-38.6-2.8-2.3-5-5.4-6.1-9-3.9-12.1,6.5-22.7,15.6-29,4.5-3.2,9.5-5.9,14.7-7.8,5.7-2,12-3.1,18-3.4-.1-.5-.2-1-.3-1.5-.7-5.3.2-11,3.5-15.4.4-.5.8-.8,1.3-1.1.1-.3.3-.6.6-.9.2-.2.4-.3.5-.5-2-2.4-2.6-5.7-1.2-8.7,1.5-3.1,5.1-4.6,8.5-4.1,1.4.2,3,.9,4,2,.2-.9.5-1.8.8-2.6,1.5-3.3,5.3-5.2,8.8-4.5,1.9.4,3.6,1.6,4.7,3.2,2.4-1.5,5.3-2,8-.6,3.2,1.7,4.9,6.2,3.1,9.4,3.1,1.7,5.7,4.1,7.2,7.4.1.3.3.6.4,1,0-.8.4-1.7,1.2-2,4.4-1.9,9.2-1.9,13.5-.4,2.4-3,6.5-4.7,10.2-3.1,2.6,1.1,4.4,3.8,4.6,6.6,1.3.4,2.5,1.3,3.3,2.5.9,1.4,1.1,3,.7,4.5,2.7,1.4,4.9,4,5,7.2.2,4.3-4,8.1-8.2,7-.3,0-.6-.2-.8-.4-.3,4.1-1.5,8.1-4,11.5-1.4,1.8-3,3.4-4.9,4.6ZM370.3,364c2.6,3.6,4.2,8.1,4.7,12.6.5-.5,1.3-.8,2.2-.5.1,0,.2,0,.3,0,.2,0,.4-.1.4-.1.2,0,.5-.3.6-.6.4-.6.6-1.2.4-1.8-.4-1.7-2.4-2.7-4.1-3.1-1.9-.4-2.4-2.9-1.1-4.2.4-.4.5-1,.3-1.5-.3-.5-1-.5-1.5-.4-.8.3-1.7,0-2.2-.5ZM364.9,358.6c.7.5,1.4,1,2.1,1.6,1,.8,1.8,1.8,2.6,2.8-.3-.7-.3-1.5.1-2.2.3-.5.3-1,0-1.6-.3-.7-.9-1.3-1.4-1.5-1.3-.4-2.5,0-3.5.9ZM338.9,357.4c-2.8-3.1-7.1-4.5-11.2-5-8.5-.9-17.5,1.6-23.4,7.9-.3.3-.6.5-.9.6,0,.1,0,.2-.2.3-2.9,4-3.7,9.1-2.5,13.9,1.2,5,4.3,9.4,8,13,6.3,6.1,16.5,12,25,6.7,8.4-5.2,8.6-16.8,8.4-25.5,0-4.1-.3-8.8-3.3-12ZM328,347.3s0,0,0,0c1.6.2,3.2.5,4.7.9.2,0,.3,0,.5.1.5-.7.6-1,.3-1.8-.2-.5-.6-1.1-1.2-1.3-1.5-.6-3.4.6-4.2,2ZM317,347.7s0,0,0,.1c2.2-.5,4.4-.7,6.6-.8-.2-.3-.3-.7-.3-1.1,0-2.4-2.7-3.6-4.5-2.1-1.2.9-1.1,2.6-1.7,3.9ZM305,353c1.6-1.2,3.4-2.1,5.3-3-.2-.1-.4-.3-.6-.5-.4-.3-.8-.8-1.2-1-.9-.4-2-.4-2.8,0-1.5.8-1.8,3.1-.6,4.3ZM258,427.6c-.5,3-1,6.2-1.4,9.4,2.6,2.3,5.6,4.1,8.7,5.5,3.6,1.6,7.4,2.4,11.3,3.3,15,3.7,30,7.3,45.3,9.5,14.7,2.1,29.7,2.7,44.4,1,.4-2.6.7-5.3.9-7.9-8.2,3.3-18.7.5-23.2-7.1-.3.2-.6.5-.9.7-10.1,7.5-25.6,6-33.9-3.5-.9-1-1.9-2.5-3.2-2.9-1.3-.4-2.7,1.1-3.8,1.7-2.7,1.6-5.8,2.4-8.9,2.4-6.3,0-12.7-3.1-16.2-8.4-.8-1.2-1.2-2.6-2-3.7-.5-.6-.7-.3-1.5,0-.8.3-1.5.6-2.3.9-3.2,1-6.8,1-10.1.2-1.1-.3-2.2-.6-3.2-1.1ZM365.8,458.9c-8.1,1-16.4,1.2-24.6.8-15.4-.7-30.7-3.4-45.7-6.8-7.7-1.7-15.5-3.6-23.2-5.5-5.8-1.4-11.4-3.7-16.1-7.3-.2,2-.2,4.1-.2,6,4.9,3.5,10.5,6,16.1,7.9,6.4,2.2,13,3.7,19.6,5.1,7,1.4,14,2.8,21,4,8.6,1.4,17.3,2.3,26,2.9,8.3.5,16.7.6,25,.3.9-2.5,1.5-4.9,2-7.3ZM362.8,468.8c-.4,0-.8,0-1.2,0-8.8.2-17.7,0-26.5-.6-8.8-.7-17.6-1.7-26.2-3.3-6.8-1.2-13.7-2.5-20.5-4-6.7-1.4-13.3-3.1-19.7-5.5-4.3-1.6-8.5-3.6-12.3-6.1.7,5.5,2.7,10.6,7.4,14.2,4.6,3.6,10.6,5,16.2,6.1,7.5,1.5,15.1,2.7,22.6,4,7.8,1.3,15.6,2.5,23.4,3.6,3.8.6,7.7,1.1,11.6,1.6,3.3.4,6.6,1.1,9.9,1.1,2.2,0,3.7-.2,5.9-1,.2,0,.3-.1.5-.2-.2.1-.2,0,0,0,.2,0,.4-.2.7-.3.4-.2.8-.4,1.2-.7.4-.2.7-.5,1.1-.8,0,0,.6-.5.6-.5,2.4-2.1,4.1-4.9,5.3-7.7ZM361.6,399c-2.1.9-4.3,1.5-6.6,1.8-5.8,1-12.1.6-17.1-2.9-1.7,1.4-3.7,2.4-5.8,3.1-11.2,3.4-22.7-3.9-29.7-12.2-2.2-2.6-4-5.4-5.3-8.5-.2,0-.5.2-.8.2-1.2,0-2.4.2-3.6.3-3.1.4-6.1.9-9.1,1.6-1.5.3-2.9.7-4.3,1.2-1.3.4-2,.8-3,1.2-4.8,2.2-9.4,4.9-13.5,8.2-4.1,3.3-8.1,7.2-10.1,12.1-.8,2-1.2,4.1-1,6.5,0,.8.4,2.2.8,3.3.4,1.2,1.1,2.5,1.9,3.6,3.2,4.3,9.3,6.5,14.6,5.3,1.6-.4,3.1-1.3,4.7-1.6,2.1-.4,4,.3,5.3,2,1,1.2,1.5,2.7,2.3,4,.7,1.1,1.5,2,2.4,2.8,3.8,3.4,9.6,4.4,14.4,2.6,1.2-.5,2.4-1.4,3.6-2.1,1.7-1,3.6-1.5,5.6-1.1,3.3.8,5,3.9,7.3,6.1,7.8,7.3,21.6,6.5,28.6-1.6,1.3-1.5,3.7-.6,4.2,1.1,1.3,4.6,5.5,7.4,10.2,8.3,3.5.7,7.2-.2,10.3-2.2.3-.7,1-1.1,1.7-1.2,0,0,0,0,0,0,3.8-3.3,6-8,6.9-12.9,2-11.4-6.2-21.6-14.2-28.6-.2-.2-.4-.4-.5-.7ZM367.6,388.1c2.2-3.7,3-8.4,2.2-12.6-.8-4.7-3.2-9.3-7-12.2-3.7-2.9-9.1-4.2-13.6-2.3-1.1.5-2.3.4-3.1-.4,1.2,4.1,1.1,8.6,1.1,12.8,0,5.9-.7,11.9-3.4,17.3-.6,1.3-1.4,2.5-2.3,3.6,4.2,2.3,9.2,2.4,13.8,1.3,4.8-1.1,9.5-3.2,12.2-7.5Z"/>
          <path class="cls-2" d="M389.8,410.2c-.6.2-1.1.9-.9,1.6,2.3,6.2,2.8,12.9,1.5,19.3-.1.7.2,1.4.9,1.6.6.2,1.4-.2,1.6-.9,1.4-6.9.9-14.1-1.5-20.7-.2-.6-.9-1.1-1.6-.9Z"/>
          <path class="cls-2" d="M384.6,412.8c-.6.4-.7,1.1-.5,1.7,1.3,3.1,1.8,6.4,1.4,9.7,0,.7.6,1.3,1.3,1.3s1.2-.6,1.3-1.3c.4-3.8-.2-7.5-1.7-11-.3-.6-1.2-.8-1.7-.5Z"/>
          <path class="cls-2" d="M476.2,345.4c.2.1.3.3.3.5,0,.2,0,.4-.3.5-1.7,1.2-3,2.9-3.7,4.8,0,.2-.3.4-.6.4h0c-.3,0-.5-.2-.6-.4-.8-1.9-2.1-3.6-3.7-4.8-.2-.1-.3-.3-.3-.5,0-.2,0-.4.3-.5,1.7-1.2,3-2.9,3.7-4.9,0-.2.3-.4.6-.4h0c.3,0,.5.2.6.4.8,1.9,2.1,3.6,3.7,4.9ZM474.8,345.9c-1.2-1-2.2-2.3-2.9-3.6-.7,1.4-1.7,2.6-2.9,3.6,1.2,1,2.2,2.2,2.9,3.6.7-1.4,1.7-2.6,2.9-3.6Z"/>
          <path class="cls-2" d="M554.1,423.7c-.1,0-.3.1-.4.2-10.3,3.3-20.9,5.4-31.6,6.4-9.4.9-18.9.9-28.3,0-4.7-.5-9.5-1.1-14.1-2.1-2.2-.5-4.1-1.4-5.4-3.3-1.3-1.8-2-4.1-2.9-6.2-3.7-8.7-6.6-17.8-8.8-27-.5-2.1-1.2-4.3-.8-6.5.4-2.3,2.2-3.8,4.4-4.4,2.2-.5,4.6-.7,6.9-1,2.3-.3,4.5-.6,6.8-.9-1.6-5.7,0-12,4.8-16,1.7-1.4,3.5-2.3,5.5-2.9-1.1-4.7.2-9.9,3.5-13.4,2.4-2.6,5.6-4,9.1-4.4-.6-2.2-.6-4.5,0-6.7,1.1-3.2,3.3-5.6,6.5-6.9,2.7-1.1,5.2-2.1,6.9-4.7,1.4-2.1,2.3-4.8,1.9-7.4-.3-2,1.1-3.4,3.1-3.1,5,.7,9.5,4.1,11.8,8.6.3.6.3,1.2.2,1.7,2.1-.6,4.2-.9,6.4-.9.4,0,.7,0,1.1,0,1-.9,2-1.8,3-2.6,1.1-.8,2.5-1.1,3.6,0,.9.9,1.1,2.7,0,3.6-.2.1-.4.3-.5.4,4.3,1.7,8,4.9,10,9.3,2.4,5.4,2.5,11.9,0,17.2,1.7,0,3.4.4,4.9,1.4,5.1,3.2,7.1,9.9,6,15.6-.6,3.1-2.3,6-4.7,8-1.8,1.5-3.9,2.5-6.1,3.2,3.3.8,5.9,3.4,7.2,6.7,1.6,4.1,1.1,8.7,1,12.9-.1,3.7,0,7.5-.7,11.2-1,6.1-4.1,12-10.3,13.8ZM473.4,410.2c6.3.9,12.7,1.8,19.1,2.5,11.3,1.2,22.8,1.8,34.2.7,11.3-1.1,22.4-4.1,32.6-9.2.3-.1.5-.2.8-.1,0-1.9.1-3.9.2-5.8,0-.8,0-1.6,0-2.4-5.2,3.4-11,5.9-17,7.6-5.7,1.6-11.5,2.4-17.4,3.1-6.2.7-12.5,1.4-18.8,1.5-12.1.2-24.2-1.3-35.9-4.3.6,2,1.3,3.9,2,5.9,0,.2.1.4.2.6ZM561.1,370.7c0,0,.2-.3,0,0h0ZM546.3,329.6c-1.2-.6-2.4-1-3.7-1.3-3.1,3.1-5.8,6.6-8,10.4,3.7.9,7.3,2.6,10.3,5.2,2.4,2.1,4.4,4.7,5.7,7.6,0,0,0,0,0-.1,1.9-2.5,3-5.5,3-8.6.1-5.5-2.5-10.6-7.4-13.2ZM509.5,365.7c.9,3.9,5,6.5,8.4,8.1,4.4,2.1,9.9,2.8,14.7,2.7,3.7-.1,7.2-1.3,10-3.9,2.5-2.3,4.2-5.4,4.9-8.7,1.5-6.9-2.5-14.3-8.4-17.9-2.1-1.3-4.5-2.2-6.9-2.6-.9,1.9-1.6,3.8-2.2,5.8-1,3.1-5.8,1.8-4.9-1.3.5-1.6,1.1-3.1,1.7-4.6-3.5.3-6.9,1.4-9.8,3.3-5.7,3.6-9.9,10.8-8.3,17.6,0,.1,0,.2,0,.3.3.3.6.7.7,1.3ZM495.3,359.2c2.8,0,5.6.6,8.1,1.8,0-8.6,6-16.8,13.8-20.4,3.8-1.7,7.9-2.6,12-2.5,1.8-3.4,4-6.7,6.5-9.7-1.7.4-3.3,1.1-4.7,2.1-1.1.8-2.8.2-3.5-.9-.7-1.2-.2-2.7.9-3.5.3-.2.7-.5,1.1-.7-.3-.2-.5-.5-.7-.9-1.2-2.5-3.2-4.3-5.6-5.3-.5,4.9-3.1,9.4-7.4,12-2.4,1.5-5.7,1.7-7.3,4.2-1.2,1.9-1.4,4.3-.3,6.3.2.4.3.8.3,1.2.5.6.7,1.6.5,2.3-.3,1.4-1.8,2-3.1,1.8-.1,0-.2,0-.2,0,0,0,0,0-.1,0-.2,0-.5,0-.7,0-.5,0-1,0-1.5,0,0,0,0,0-.1,0,0,0,0,0-.1,0-.2,0-.4,0-.7.1-.4,0-.9.2-1.3.4-.2,0-.3.1-.5.2,0,0-.3.1-.4.2-.4.2-.8.4-1.2.7-.2.1-.4.3-.6.4,0,0,0,0,0,0,0,0,0,0-.1.1-.3.3-.7.6-1,.9-.1.1-.2.3-.3.4,0,0-.2.3-.3.3-.3.4-.5.8-.7,1.2-.1.2-.2.4-.3.6,0,0,0,0,0,.1,0,0,0,0,0,.1-.2.5-.3.9-.4,1.4,0,.2-.1.4-.1.7,0,0,0,.2,0,.3,0,.4,0,.9,0,1.3,0,.5,0,.9,0,1.4,0,0,0,.3,0,.3,0,.2,0,.4.2.7,0,.1,0,.2,0,.3ZM488.6,383.7c4.9,4.8,12.2,5.6,18.7,5.3,14.6-.7,29.2-5.4,41.8-12.6,0,0,.2,0,.3-.1.5-.7,1.2-1.1,2.1-1.2,1,0,1.7-.2,2.9-.4.5-.1,1-.2,1.4-.4.2,0,.4-.2.7-.2,0,0,.3-.1.4-.1.7-.3,1.3-.7,2-1.1.2-.1.4-.3.6-.4,0,0,0,0,0,0,.3-.2.6-.5.9-.8.3-.3.5-.5.8-.8,0-.1.2-.2.3-.4.3-.5.6-1,.9-1.5,0,0,0,0,0,0,0,0,0,0,0,0,0-.1.1-.3.2-.4,0-.2.2-.5.2-.7,0-.3.1-.6.2-.8,0-.2,0-.5,0-.6,0-.5,0-1.1,0-1.6,0-.3,0-.6,0-.8,0-.1,0-.2,0-.4-.1-.6-.2-1.2-.4-1.8,0-.3-.2-.5-.3-.8,0-.1,0-.2-.1-.3,0,0,0,0,0,0-.3-.5-.5-1-.8-1.5-.1-.2-.3-.4-.4-.6,0,0,0,0,0,0,0,0,0,0-.1-.1-.4-.4-.8-.7-1.1-1.1,0,0-.1-.1-.2-.1-.2-.1-.4-.3-.6-.4-.1,0-.2-.1-.4-.2-.2,0-.4-.1-.6-.2-.2,0-.5,0-.7-.2.8.2,0,0-.2,0-.3,0-.6,0-.9,0,0,0,0,0,.1,0,0,0-.1,0-.2,0,0,0,0,0,0,0-.1,0-.3,0-.1,0,0,0,0,0-.1,0-.3,0-.5.1-.8.2-.2,0-1,.4-.4.1-.7.3-1.5.4-2.1.2.8,3.8.6,7.9-.9,11.6-1.6,4.1-4.4,7.7-8.1,10.2-4.4,2.9-9.6,3.5-14.7,3-5.2-.5-10.5-1.5-15-4.2-3.8-2.2-7.5-5.3-8.8-9.7-.3,0-.6-.1-.9-.3-5.4-3.9-13.7-4.3-17.8,1.7-3.4,4.9-1.4,10.9,2.6,14.8ZM467.3,389.9c.5,2.3,1.1,4.7,1.8,7,.4,1.3.8,2.6,1.2,3.9,6.5,1.8,13.1,3,19.8,3.8,6.4.7,12.8,1,19.3.8,6.1-.2,12.3-.9,18.4-1.7,5.6-.7,11.3-1.7,16.7-3.3,5.6-1.7,10.8-4.2,15.6-7.5,0,0,.1,0,.2-.1,0-.6,0-1.2,0-1.7-.1-1.8-.5-3.8-1.7-5.3-.8-1-2.3-2.1-3.7-1.9-1.4.2-2.7-.3-3.1-1.8-.1-.4,0-.9,0-1.3-8.3,4.7-17.2,8.3-26.4,10.6-13.7,3.4-34.4,6.4-43.2-7.6-2.6.4-5.2.7-7.8,1.1-2.3.3-4.9.4-7.2,1.1,0,0-.2,0-.2.1,0,0-.1.2-.1.2,0,.2,0,.5,0,.8,0,1,.4,2,.6,3ZM551.3,419.4c.2-.1.4-.2.7-.3,5.6-1.3,7.3-7.1,7.7-12.4-5.7,2.8-11.7,5.1-17.9,6.6-11.2,2.8-22.8,3.5-34.2,3-11.2-.4-22.2-1.9-33.3-3.5,1.1,2.9,2.2,5.7,3.6,8.4.8,1.6,1.9,1.9,3.6,2.2,2.1.4,4.3.8,6.4,1.1,4.2.6,8.5,1,12.8,1.2,17.1.9,34.3-1.3,50.6-6.4Z"/>
          <path class="cls-2" d="M556,356c0,0-.1,0-.2,0,0,0,.1,0,.2,0,0,0,0,0,0,0Z"/>
          <path class="cls-2" d="M533.9,369c.5.5,1.3.5,1.8,0,1.4-1.4,2.8-2.8,4.1-4.2.5-.5.5-1.3,0-1.8-.5-.5-1.3-.5-1.8,0-1.4,1.4-2.8,2.8-4.1,4.2-.5.5-.5,1.3,0,1.8Z"/>
          <path class="cls-2" d="M533.2,364.5c1.7-.9,3.2-2.2,4.2-3.8.2-.3.2-.7.1-1,0-.3-.3-.6-.6-.8-.6-.3-1.3-.1-1.7.5,0,0-.1.2-.2.3-.5.6-1,1.2-1.7,1.7-.5.3-1,.7-1.5.9-.6.3-.8,1.2-.5,1.7.4.6,1.1.8,1.7.5Z"/>
          <path class="cls-2" d="M573,420.7c.9-1.4-1.3-2.6-2.2-1.3-3.6,5.5-9,9.7-15.1,12-.6.2-1.1.9-.9,1.6.2.6.9,1.1,1.6.9,6.8-2.5,12.6-7.1,16.6-13.1Z"/>
          <path class="cls-2" d="M580.3,422.4c-.4-.4-1.4-.5-1.8,0-3.8,4.9-8.4,9-13.6,12.2-1.4.8-.1,3,1.3,2.2,5.4-3.3,10.2-7.6,14.1-12.6.4-.5.5-1.3,0-1.8Z"/>
          <path class="cls-2" d="M456.7,264.8c-.1.4-.3.8-.5,1.1-4.1,8.8-14.3,12.6-23,15.1,0,0-.2,0-.2,0-.8,2.3-2.2,4.4-4.3,6.1-4.3,3.4-9.9,4.9-14.9,6.7-5.3,2-11.2,4-16.6,1.2-3.9-2-6.1-6-7.4-10-7.8,1.5-16.2,1.5-23.1-2.9-3-1.9-5.5-4.4-7.1-7.6-.4-.7-.7-1.4-1-2.2-9.9,3-17.3-7.5-19.1-15.8-1-4.6-.7-9.3,1.5-13.5,1.9-3.7,5.2-6.6,9.2-7.8.2,0,.4-.1.6-.1.3-4.5,1.6-8.9,3.9-12.8,2.9-5,8-9.3,13.8-9.5-.4-1.3-.7-2.6-.6-4.1,0-.5.2-1,.5-1.4.3-1.6.7-3,1.6-4.4,2-3.3,5.2-5.8,8.5-7.7,3.7-2.2,7.9-3.7,12-4.8,6.4-1.7,13.2-1.9,19.8-1.6,6.3.3,14.2,1.1,18.8,6,.9,1,1.6,2,2.1,3.2,6-2.8,13.5-1.8,19.3,1.1,5.7,2.9,10.2,8.1,11.6,14.3,8.1-4.4,18.8-2.9,25.1,4.4,8.2,9.4,5.6,23.5-.7,33.2-6.4,9.9-17.8,16.1-29.7,14ZM424.4,197.2s0,0,0,0h0ZM357.1,267.6c-.2-.9-.4-1.8-.6-2.7-.6-3.4-1-6.9-1.9-10.2-1-3.7-2.4-7.3-3.2-11-.2-1.1-.4-2.2-.5-3.4-5.8,2.3-7.7,9.2-6.5,14.9,1.2,5.5,5.8,14.3,12.7,12.4ZM388.6,280.2c-.8-3.8-1.3-7.7-1.9-11.4-1.1-6.2-2.1-12.4-3.2-18.6-.9-5.5-1.7-11.1-3.2-16.6-1.3-4.9-3.3-9.4-6.7-13.3-.7-.8-1.4-1.6-2.1-2.4-.3,0-.7,0-1.1,0-6.3-1.5-11.4,5.6-13.2,10.7-1,2.9-1.6,5.8-1.5,8.9,0,3.4.9,6.6,1.9,9.8,1,3.1,2,6.2,2.6,9.4.6,3.1,1,6.2,1.6,9.2.6,2.8,1.5,5.4,3,7.8,1.6,2.4,3.9,4.1,6.4,5.4,5.4,2.6,11.5,2.4,17.3,1.3ZM428.7,272.1c-.3-2.7-.8-5.5-1.3-8.2-1.1-5.5-2.5-11-3.6-16.5-2.2-10.6-3.6-21.8-.9-32.5.6-2.6,1.6-5.1,2.7-7.5.5-1.2,1-2.4,1.3-3.7.1-.5.2-.9.2-1.4,0,0,0-.8,0-.8,0-.3-.1-.7-.2-1,0-.1,0-.3-.1-.4,0,0,0,0,0,0,0,0,0,0,0,0-.1-.3-.3-.6-.5-.9,0,0-.3-.4-.3-.5-.4-.5-.8-.9-1.3-1.3,0,0,0,0,0,0-.1,0-.2-.2-.3-.2-.3-.2-.6-.4-.9-.5-.3-.2-.7-.4-1-.5-.2,0-.3-.2-.5-.2,0,0,0,0-.1,0-.6-.2-1.2-.5-1.9-.6-1.5-.4-3-.7-4.6-1-.1,0-.5,0-.5,0-.2,0-.4,0-.5,0-.4,0-.7,0-1.1-.1-.8,0-1.5-.1-2.3-.2-1.5,0-3.1,0-4.6,0-6.5,0-12.3.6-18.5,2.8-3.4,1.2-7,2.9-9.8,5.1-.6.5-1.3,1.1-1.8,1.6-.5.5-1.1,1.2-1.3,1.5-.4.6-.8,1.2-1.1,1.9,0,0-.2.6-.2.7,0,.2-.2,1.1-.2.6,0,.4-.2.8-.3,1.1,0,1.6.4,2.9,1.4,4.3,1,1.5,2.4,2.8,3.6,4.2,1.6,1.9,3,3.8,4.1,6,2.3,4.6,3.6,9.6,4.5,14.6,2.1,11.3,3.9,22.7,5.9,34.1,1.2,6.9,2,19.6,11.6,19.1,2.5-.1,4.9-1.1,7.2-1.9,2.7-1,5.4-2,8.1-3,3.7-1.4,8-3.3,9.2-7.5.6-2.2.5-4.6.3-6.9ZM453.3,224c.5-2.9,2.1-5.4,4.2-7.5,0-.1,0-.2,0-.3-.8-5.7-4.3-10.1-9.3-12.7-4.7-2.5-11.2-3.3-16.2-.4,0,.7-.1,1.5-.3,2.2-.7,2.7-2.1,5.2-3,7.8-.9,2.5-1.5,5.1-1.8,7.8-1.6,11.7,1.3,23.3,3.9,34.7,1.3,5.8,2.6,11.7,3.1,17.7,0,.8,0,1.6,0,2.4,4.6-1.4,9.2-3.1,13-6.1,1.9-1.5,3.5-3.3,4.6-5.5,1.5-2.9,1.7-6.3,1.7-9.5,0-6.8-.2-13.7-.2-20.5,0-3.3-.3-6.8.3-10ZM458,259.9c11.8,2.1,22.3-6.2,26.8-16.6,2.1-4.9,3.4-10.7,2-16-1.2-4.5-4.3-8.1-8.4-10.2-4-2-9-1.9-13.1,0-2,1-3.9,2.3-5.3,4.1-1.7,2.2-1.9,4.8-1.9,7.5,0,6.4.2,12.8.2,19.1,0,3.9.3,8-.3,11.9Z"/>
          <path class="cls-2" d="M422.7,252.7c-3.8-13.2-4.7-27.3-2.6-40.8.6-3.9,1.5-7.7,2.6-11.5.5-1.6-2-2.2-2.4-.7-3.9,13.6-4.8,28.1-2.6,42.1.6,3.9,1.5,7.8,2.6,11.6.5,1.6,2.9.9,2.4-.7Z"/>
          <path class="cls-2" d="M423.6,261.1c-.2-.2-.6-.4-.9-.4-.6,0-1.3.6-1.3,1.3l.4,4.1c0,.3.1.6.4.9.2.2.6.4.9.4.6,0,1.3-.6,1.3-1.3-.1-1.4-.3-2.7-.4-4.1,0-.3-.1-.6-.4-.9Z"/>
          <path class="cls-2" d="M413.1,209.8c-.7,0-1.2.6-1.3,1.3-.1,3.6-.3,7.1-.4,10.7,0,.7.6,1.3,1.3,1.3s1.2-.6,1.3-1.3c.1-3.6.3-7.1.4-10.7,0-.7-.6-1.3-1.3-1.3Z"/>
          <path class="cls-2" d="M448.8,210.3c-1.9,8.5-2.6,17.3-2.2,26,.1,2.5.3,5,.6,7.4,0,.7.5,1.3,1.3,1.3s1.3-.6,1.3-1.3c-1-8.5-1-17.1.2-25.5.3-2.4.8-4.8,1.3-7.2.3-1.6-2.1-2.3-2.4-.7Z"/>
          <path class="cls-2" d="M449.2,250.7c-.7,0-1.3.6-1.3,1.3v6.2c0,.7.6,1.3,1.3,1.3.7,0,1.3-.6,1.3-1.3v-6.2c0-.7-.6-1.3-1.3-1.3Z"/>
          <path class="cls-2" d="M364.7,255.4c0-.7-.5-1.3-1.3-1.3s-1.3.6-1.3,1.3c.8,7,1.8,14.7,7,19.9,1.2,1.1,2.9-.6,1.8-1.8-4.7-4.7-5.6-11.8-6.3-18.1Z"/>
          <path class="cls-2" d="M378.3,277.9c-.1,0-.2,0-.4,0-.3,0-.5-.1-.8-.2-.2-.1-.5-.3-.7-.4-.1,0-.2-.2-.3-.3-.5-.5-1.3-.5-1.8,0-.5.5-.5,1.3,0,1.8,1,1.1,2.5,1.7,4,1.7.7,0,1.3-.6,1.3-1.3,0-.7-.6-1.3-1.3-1.3Z"/>
          <path class="cls-2" d="M459.6,194.9c-.2-.1-.3-.3-.3-.5,0-.2,0-.4.3-.5,3.5-2.6,6.3-6.2,7.9-10.3,0-.2.3-.4.6-.4h0c.3,0,.5.2.6.4,1.6,4.1,4.4,7.6,7.9,10.3.2.1.3.3.3.5,0,.2,0,.4-.3.5-3.5,2.6-6.3,6.2-7.9,10.3,0,.2-.3.4-.6.4h0c-.3,0-.5-.2-.6-.4-1.6-4.1-4.4-7.6-7.9-10.3ZM461,194.3c3,2.4,5.5,5.5,7.1,8.9,1.6-3.5,4.1-6.5,7.1-8.9-3-2.4-5.5-5.5-7.1-9-1.6,3.5-4.1,6.5-7.1,9Z"/>
          <path class="cls-2" d="M443.5,181.3c-.2-.1-.3-.3-.3-.5,0-.2,0-.4.3-.5,1.7-1.2,3-2.9,3.7-4.9,0-.2.3-.4.6-.4h0c.3,0,.5.2.6.4.8,1.9,2.1,3.6,3.7,4.9.2.1.3.3.3.5,0,.2,0,.4-.3.5-1.7,1.2-3,2.9-3.7,4.8,0,.2-.3.4-.6.4h0c-.3,0-.5-.2-.6-.4-.8-1.9-2.1-3.6-3.7-4.8ZM444.9,180.7c1.2,1,2.2,2.2,2.9,3.6.7-1.4,1.7-2.6,2.9-3.6-1.2-1-2.2-2.3-2.9-3.6-.7,1.4-1.7,2.6-2.9,3.6Z"/>
          <path class="cls-2" d="M260.9,290.9c-.2-.1-.3-.3-.3-.5,0-.2,0-.4.3-.5,3.5-2.6,6.3-6.2,7.9-10.3,0-.2.3-.4.6-.4h0c.3,0,.5.2.6.4,1.6,4.1,4.4,7.6,7.9,10.3.2.1.3.3.3.5,0,.2,0,.4-.3.5-3.5,2.6-6.3,6.2-7.9,10.3,0,.2-.3.4-.6.4h0c-.3,0-.5-.2-.6-.4-1.6-4.1-4.4-7.6-7.9-10.3ZM262.3,290.4c3,2.4,5.5,5.5,7.1,8.9,1.6-3.5,4.1-6.5,7.1-8.9-3-2.4-5.5-5.5-7.1-9-1.6,3.5-4.1,6.5-7.1,9Z"/>
          <path class="cls-2" d="M241,291.5c.2.1.3.3.3.5,0,.2,0,.4-.3.5-1.7,1.2-3,2.9-3.7,4.8,0,.2-.3.4-.6.4h0c-.3,0-.5-.2-.6-.4-.8-1.9-2.1-3.6-3.7-4.8-.2-.1-.3-.3-.3-.5,0-.2,0-.4.3-.5,1.7-1.2,3-2.9,3.7-4.9,0-.2.3-.4.6-.4h0c.3,0,.5.2.6.4.8,1.9,2.1,3.6,3.7,4.9ZM239.6,292c-1.2-1-2.2-2.3-2.9-3.6-.7,1.4-1.7,2.6-2.9,3.6,1.2,1,2.2,2.2,2.9,3.6.7-1.4,1.7-2.6,2.9-3.6Z"/>
          <path class="cls-2" d="M255.7,301.5c1.8,0,3.3,1.5,3.3,3.3s-1.5,3.3-3.3,3.3-3.3-1.5-3.3-3.3,1.5-3.3,3.3-3.3ZM255.7,302.7c-1.2,0-2.1.9-2.1,2.1s.9,2.1,2.1,2.1,2.1-.9,2.1-2.1-.9-2.1-2.1-2.1Z"/>
          <path class="cls-2" d="M426.3,436.6c-.7,0-1.3.6-1.3,1.3v4c0,.7.6,1.3,1.3,1.3.7,0,1.3-.6,1.3-1.3v-4c0-.7-.6-1.3-1.3-1.3Z"/>
          <path class="cls-2" d="M426.3,447.8c-.7,0-1.3.6-1.3,1.3v4c0,.7.6,1.3,1.3,1.3.7,0,1.3-.6,1.3-1.3v-4c0-.7-.6-1.3-1.3-1.3Z"/>
          <path class="cls-2" d="M433.9,444.2h-4c-.7,0-1.3.6-1.3,1.3,0,.7.6,1.3,1.3,1.3h4c.7,0,1.3-.6,1.3-1.3,0-.7-.6-1.3-1.3-1.3Z"/>
          <path class="cls-2" d="M422.7,444.2h-4c-.7,0-1.3.6-1.3,1.3,0,.7.6,1.3,1.3,1.3h4c.7,0,1.3-.6,1.3-1.3,0-.7-.6-1.3-1.3-1.3Z"/>
          <path class="cls-2" d="M248.4,202.4c.7,0,1.3-.6,1.3-1.3v-4c0-.7-.6-1.3-1.3-1.3-.7,0-1.3.6-1.3,1.3v4c0,.7.6,1.3,1.3,1.3Z"/>
          <path class="cls-2" d="M248.4,213.6c.7,0,1.3-.6,1.3-1.3v-4c0-.7-.6-1.3-1.3-1.3-.7,0-1.3.6-1.3,1.3v4c0,.7.6,1.3,1.3,1.3Z"/>
          <path class="cls-2" d="M252.1,206.1h4c.7,0,1.3-.6,1.3-1.3,0-.7-.6-1.3-1.3-1.3h-4c-.7,0-1.3.6-1.3,1.3,0,.7.6,1.3,1.3,1.3Z"/>
          <path class="cls-2" d="M244.8,203.5h-4c-.7,0-1.3.6-1.3,1.3,0,.7.6,1.3,1.3,1.3h4c.7,0,1.3-.6,1.3-1.3,0-.7-.6-1.3-1.3-1.3Z"/>
          <path class="cls-2" d="M215.8,400.6c0,2.5-2,4.5-4.5,4.5s-4.5-2-4.5-4.5,2-4.5,4.5-4.5,4.5,2,4.5,4.5ZM213.3,400.6c0-1.1-.9-2-2-2s-2,.9-2,2,.9,2,2,2,2-.9,2-2Z"/>
          <path class="cls-2" d="M313.7,180.8c0-2.5,2-4.5,4.5-4.5s4.5,2,4.5,4.5-2,4.5-4.5,4.5-4.5-2-4.5-4.5ZM316.3,180.8c0,1.1.9,2,2,2s2-.9,2-2-.9-2-2-2-2,.9-2,2Z"/>
          <path class="cls-2" d="M547.6,288.7c0-2.5,2-4.5,4.5-4.5s4.5,2,4.5,4.5-2,4.5-4.5,4.5-4.5-2-4.5-4.5ZM550.1,288.7c0,1.1.9,2,2,2s2-.9,2-2-.9-2-2-2-2,.9-2,2Z"/>
        </g>
        <g>
          <path class="cls-2" d="M82.5,180.4c.2.1.3.3.3.5,0,.2,0,.4-.3.5-1.7,1.2-3,2.9-3.7,4.8,0,.2-.3.4-.6.4h0c-.3,0-.5-.2-.6-.4-.8-1.9-2.1-3.6-3.7-4.8-.2-.1-.3-.3-.3-.5,0-.2,0-.4.3-.5,1.7-1.2,3-2.9,3.7-4.9,0-.2.3-.4.6-.4h0c.3,0,.5.2.6.4.8,1.9,2.1,3.6,3.7,4.9ZM81.1,181c-1.2-1-2.2-2.3-2.9-3.6-.7,1.4-1.7,2.6-2.9,3.6,1.2,1,2.2,2.2,2.9,3.6.7-1.4,1.7-2.6,2.9-3.6Z"/>
          <path class="cls-2" d="M160.4,258.8c-.1,0-.3.1-.4.2-10.3,3.3-20.9,5.4-31.6,6.4-9.4.9-18.9.9-28.3,0-4.7-.5-9.5-1.1-14.1-2.1-2.2-.5-4.1-1.4-5.4-3.3-1.3-1.8-2-4.1-2.9-6.2-3.7-8.7-6.6-17.8-8.8-27-.5-2.1-1.2-4.3-.8-6.5.4-2.3,2.2-3.8,4.4-4.4,2.2-.5,4.6-.7,6.9-1,2.3-.3,4.5-.6,6.8-.9-1.6-5.7,0-12,4.8-16,1.7-1.4,3.5-2.3,5.5-2.9-1.1-4.7.2-9.9,3.5-13.4,2.4-2.6,5.6-4,9.1-4.4-.6-2.2-.6-4.5,0-6.7,1.1-3.2,3.3-5.6,6.5-6.9,2.7-1.1,5.2-2.1,6.9-4.7,1.4-2.1,2.3-4.8,1.9-7.4-.3-2,1.1-3.4,3.1-3.1,5,.7,9.5,4.1,11.8,8.6.3.6.3,1.2.2,1.7,2.1-.6,4.2-.9,6.4-.9.4,0,.7,0,1.1,0,1-.9,2-1.8,3-2.6,1.1-.8,2.5-1.1,3.6,0,.9.9,1.1,2.7,0,3.6-.2.1-.4.3-.5.4,4.3,1.7,8,4.9,10,9.3,2.4,5.4,2.5,11.9,0,17.2,1.7,0,3.4.4,4.9,1.4,5.1,3.2,7.1,9.9,6,15.6-.6,3.1-2.3,6-4.7,8-1.8,1.5-3.9,2.5-6.1,3.2,3.3.8,5.9,3.4,7.2,6.7,1.6,4.1,1.1,8.7,1,12.9-.1,3.7,0,7.5-.7,11.2-1,6.1-4.1,12-10.3,13.8ZM79.6,245.2c6.3.9,12.7,1.8,19.1,2.5,11.3,1.2,22.8,1.8,34.2.7,11.3-1.1,22.4-4.1,32.6-9.2.3-.1.5-.2.8-.1,0-1.9.1-3.9.2-5.8,0-.8,0-1.6,0-2.4-5.2,3.4-11,5.9-17,7.6-5.7,1.6-11.5,2.4-17.4,3.1-6.2.7-12.5,1.4-18.8,1.5-12.1.2-24.2-1.3-35.9-4.3.6,2,1.3,3.9,2,5.9,0,.2.1.4.2.6ZM167.4,205.7c0,0,.2-.3,0,0h0ZM152.5,164.6c-1.2-.6-2.4-1-3.7-1.3-3.1,3.1-5.8,6.6-8,10.4,3.7.9,7.3,2.6,10.3,5.2,2.4,2.1,4.4,4.7,5.7,7.6,0,0,0,0,0-.1,1.9-2.5,3-5.5,3-8.6.1-5.5-2.5-10.6-7.4-13.2ZM115.8,200.7c.9,3.9,5,6.5,8.4,8.1,4.4,2.1,9.9,2.8,14.7,2.7,3.7-.1,7.2-1.3,10-3.9,2.5-2.3,4.2-5.4,4.9-8.7,1.5-6.9-2.5-14.3-8.4-17.9-2.1-1.3-4.5-2.2-6.9-2.6-.9,1.9-1.6,3.8-2.2,5.8-1,3.1-5.8,1.8-4.9-1.3.5-1.6,1.1-3.1,1.7-4.6-3.5.3-6.9,1.4-9.8,3.3-5.7,3.6-9.9,10.8-8.3,17.6,0,.1,0,.2,0,.3.3.3.6.7.7,1.3ZM101.5,194.2c2.8,0,5.6.6,8.1,1.8,0-8.6,6-16.8,13.8-20.4,3.8-1.7,7.9-2.6,12-2.5,1.8-3.4,4-6.7,6.5-9.7-1.7.4-3.3,1.1-4.7,2.1-1.1.8-2.8.2-3.5-.9-.7-1.2-.2-2.7.9-3.5.3-.2.7-.5,1.1-.7-.3-.2-.5-.5-.7-.9-1.2-2.5-3.2-4.3-5.6-5.3-.5,4.9-3.1,9.4-7.4,12-2.4,1.5-5.7,1.7-7.3,4.2-1.2,1.9-1.4,4.3-.3,6.3.2.4.3.8.3,1.2.5.6.7,1.6.5,2.3-.3,1.4-1.8,2-3.1,1.8-.1,0-.2,0-.2,0,0,0,0,0-.1,0-.2,0-.5,0-.7,0-.5,0-1,0-1.5,0,0,0,0,0-.1,0,0,0,0,0-.1,0-.2,0-.4,0-.7.1-.4,0-.9.2-1.3.4-.2,0-.3.1-.5.2,0,0-.3.1-.4.2-.4.2-.8.4-1.2.7-.2.1-.4.3-.6.4,0,0,0,0,0,0,0,0,0,0-.1.1-.3.3-.7.6-1,.9-.1.1-.2.3-.3.4,0,0-.2.3-.3.3-.3.4-.5.8-.7,1.2-.1.2-.2.4-.3.6,0,0,0,0,0,.1,0,0,0,0,0,.1-.2.5-.3.9-.4,1.4,0,.2-.1.4-.1.7,0,0,0,.2,0,.3,0,.4,0,.9,0,1.3,0,.5,0,.9,0,1.4,0,0,0,.3,0,.3,0,.2,0,.4.2.7,0,.1,0,.2,0,.3ZM94.9,218.7c4.9,4.8,12.2,5.6,18.7,5.3,14.6-.7,29.2-5.4,41.8-12.6,0,0,.2,0,.3-.1.5-.7,1.2-1.1,2.1-1.2,1,0,1.7-.2,2.9-.4.5-.1,1-.2,1.4-.4.2,0,.4-.2.7-.2,0,0,.3-.1.4-.1.7-.3,1.3-.7,2-1.1.2-.1.4-.3.6-.4,0,0,0,0,0,0,.3-.2.6-.5.9-.8.3-.3.5-.5.8-.8,0-.1.2-.2.3-.4.3-.5.6-1,.9-1.5,0,0,0,0,0,0,0,0,0,0,0,0,0-.1.1-.3.2-.4,0-.2.2-.5.2-.7,0-.3.1-.6.2-.8,0-.2,0-.5,0-.6,0-.5,0-1.1,0-1.6,0-.3,0-.6,0-.8,0-.1,0-.2,0-.4-.1-.6-.2-1.2-.4-1.8,0-.3-.2-.5-.3-.8,0-.1,0-.2-.1-.3,0,0,0,0,0,0-.3-.5-.5-1-.8-1.5-.1-.2-.3-.4-.4-.6,0,0,0,0,0,0,0,0,0,0-.1-.1-.4-.4-.8-.7-1.1-1.1,0,0-.1-.1-.2-.1-.2-.1-.4-.3-.6-.4-.1,0-.2-.1-.4-.2-.2,0-.4-.1-.6-.2-.2,0-.5,0-.7-.2.8.2,0,0-.2,0-.3,0-.6,0-.9,0,0,0,0,0,.1,0,0,0-.1,0-.2,0,0,0,0,0,0,0-.1,0-.3,0-.1,0,0,0,0,0-.1,0-.3,0-.5.1-.8.2-.2,0-1,.4-.4.1-.7.3-1.5.4-2.1.2.8,3.8.6,7.9-.9,11.6-1.6,4.1-4.4,7.7-8.1,10.2-4.4,2.9-9.6,3.5-14.7,3-5.2-.5-10.5-1.5-15-4.2-3.8-2.2-7.5-5.3-8.8-9.7-.3,0-.6-.1-.9-.3-5.4-3.9-13.7-4.3-17.8,1.7-3.4,4.9-1.4,10.9,2.6,14.8ZM73.6,225c.5,2.3,1.1,4.7,1.8,7,.4,1.3.8,2.6,1.2,3.9,6.5,1.8,13.1,3,19.8,3.8,6.4.7,12.8,1,19.3.8,6.1-.2,12.3-.9,18.4-1.7,5.6-.7,11.3-1.7,16.7-3.3,5.6-1.7,10.8-4.2,15.6-7.5,0,0,.1,0,.2-.1,0-.6,0-1.2,0-1.7-.1-1.8-.5-3.8-1.7-5.3-.8-1-2.3-2.1-3.7-1.9-1.4.2-2.7-.3-3.1-1.8-.1-.4,0-.9,0-1.3-8.3,4.7-17.2,8.3-26.4,10.6-13.7,3.4-34.4,6.4-43.2-7.6-2.6.4-5.2.7-7.8,1.1-2.3.3-4.9.4-7.2,1.1,0,0-.2,0-.2.1,0,0-.1.2-.1.2,0,.2,0,.5,0,.8,0,1,.4,2,.6,3ZM157.6,254.4c.2-.1.4-.2.7-.3,5.6-1.3,7.3-7.1,7.7-12.4-5.7,2.8-11.7,5.1-17.9,6.6-11.2,2.8-22.8,3.5-34.2,3-11.2-.4-22.2-1.9-33.3-3.5,1.1,2.9,2.2,5.7,3.6,8.4.8,1.6,1.9,1.9,3.6,2.2,2.1.4,4.3.8,6.4,1.1,4.2.6,8.5,1,12.8,1.2,17.1.9,34.3-1.3,50.6-6.4Z"/>
          <path class="cls-2" d="M162.2,191c0,0-.1,0-.2,0,0,0,.1,0,.2,0,0,0,0,0,0,0Z"/>
          <path class="cls-2" d="M140.1,204c.5.5,1.3.5,1.8,0,1.4-1.4,2.8-2.8,4.1-4.2.5-.5.5-1.3,0-1.8-.5-.5-1.3-.5-1.8,0-1.4,1.4-2.8,2.8-4.1,4.2-.5.5-.5,1.3,0,1.8Z"/>
          <path class="cls-2" d="M139.5,199.5c1.7-.9,3.2-2.2,4.2-3.8.2-.3.2-.7.1-1,0-.3-.3-.6-.6-.8-.6-.3-1.3-.1-1.7.5,0,0-.1.2-.2.3-.5.6-1,1.2-1.7,1.7-.5.3-1,.7-1.5.9-.6.3-.8,1.2-.5,1.7.4.6,1.1.8,1.7.5Z"/>
          <path class="cls-2" d="M179.3,255.7c.9-1.4-1.3-2.6-2.2-1.3-3.6,5.5-9,9.7-15.1,12-.6.2-1.1.9-.9,1.6.2.6.9,1.1,1.6.9,6.8-2.5,12.6-7.1,16.6-13.1Z"/>
          <path class="cls-2" d="M186.5,257.4c-.4-.4-1.4-.5-1.8,0-3.8,4.9-8.4,9-13.6,12.2-1.4.8-.1,3,1.3,2.2,5.4-3.3,10.2-7.6,14.1-12.6.4-.5.5-1.3,0-1.8Z"/>
          <path class="cls-2" d="M63,99.8c-.1.4-.3.8-.5,1.1-4.1,8.8-14.3,12.6-23,15.1,0,0-.2,0-.2,0-.8,2.3-2.2,4.4-4.3,6.1-4.3,3.4-9.9,4.9-14.9,6.7-5.3,2-11.2,4-16.6,1.2-3.9-2-6.1-6-7.4-10-7.8,1.5-16.2,1.5-23.1-2.9-3-1.9-5.5-4.4-7.1-7.6-.4-.7-.7-1.4-1-2.2-9.9,3-17.3-7.5-19.1-15.8-1-4.6-.7-9.3,1.5-13.5,1.9-3.7,5.2-6.6,9.2-7.8.2,0,.4-.1.6-.1.3-4.5,1.6-8.9,3.9-12.8,2.9-5,8-9.3,13.8-9.5-.4-1.3-.7-2.6-.6-4.1,0-.5.2-1,.5-1.4.3-1.6.7-3,1.6-4.4,2-3.3,5.2-5.8,8.5-7.7,3.7-2.2,7.9-3.7,12-4.8,6.4-1.7,13.2-1.9,19.8-1.6,6.3.3,14.2,1.1,18.8,6,.9,1,1.6,2,2.1,3.2,6-2.8,13.5-1.8,19.3,1.1,5.7,2.9,10.2,8.1,11.6,14.3,8.1-4.4,18.8-2.9,25.1,4.4,8.2,9.4,5.6,23.5-.7,33.2-6.4,9.9-17.8,16.1-29.7,14ZM30.6,32.2s0,0,0,0h0ZM-36.7,102.6c-.2-.9-.4-1.8-.6-2.7-.6-3.4-1-6.9-1.9-10.2-1-3.7-2.4-7.3-3.2-11-.2-1.1-.4-2.2-.5-3.4-5.8,2.3-7.7,9.2-6.5,14.9,1.2,5.5,5.8,14.3,12.7,12.4ZM-5.2,115.2c-.8-3.8-1.3-7.7-1.9-11.4-1.1-6.2-2.1-12.4-3.2-18.6-.9-5.5-1.7-11.1-3.2-16.6-1.3-4.9-3.3-9.4-6.7-13.3-.7-.8-1.4-1.6-2.1-2.4-.3,0-.7,0-1.1,0-6.3-1.5-11.4,5.6-13.2,10.7-1,2.9-1.6,5.8-1.5,8.9,0,3.4.9,6.6,1.9,9.8,1,3.1,2,6.2,2.6,9.4.6,3.1,1,6.2,1.6,9.2.6,2.8,1.5,5.4,3,7.8,1.6,2.4,3.9,4.1,6.4,5.4,5.4,2.6,11.5,2.4,17.3,1.3ZM35,107.1c-.3-2.7-.8-5.5-1.3-8.2-1.1-5.5-2.5-11-3.6-16.5-2.2-10.6-3.6-21.8-.9-32.5.6-2.6,1.6-5.1,2.7-7.5.5-1.2,1-2.4,1.3-3.7.1-.5.2-.9.2-1.4,0,0,0-.8,0-.8,0-.3-.1-.7-.2-1,0-.1,0-.3-.1-.4,0,0,0,0,0,0,0,0,0,0,0,0-.1-.3-.3-.6-.5-.9,0,0-.3-.4-.3-.5-.4-.5-.8-.9-1.3-1.3,0,0,0,0,0,0-.1,0-.2-.2-.3-.2-.3-.2-.6-.4-.9-.5-.3-.2-.7-.4-1-.5-.2,0-.3-.2-.5-.2,0,0,0,0-.1,0-.6-.2-1.2-.5-1.9-.6-1.5-.4-3-.7-4.6-1-.1,0-.5,0-.5,0-.2,0-.4,0-.5,0-.4,0-.7,0-1.1-.1-.8,0-1.5-.1-2.3-.2-1.5,0-3.1,0-4.6,0-6.5,0-12.3.6-18.5,2.8-3.4,1.2-7,2.9-9.8,5.1-.6.5-1.3,1.1-1.8,1.6-.5.5-1.1,1.2-1.3,1.5-.4.6-.8,1.2-1.1,1.9,0,0-.2.6-.2.7,0,.2-.2,1.1-.2.6,0,.4-.2.8-.3,1.1,0,1.6.4,2.9,1.4,4.3,1,1.5,2.4,2.8,3.6,4.2,1.6,1.9,3,3.8,4.1,6,2.3,4.6,3.6,9.6,4.5,14.6,2.1,11.3,3.9,22.7,5.9,34.1,1.2,6.9,2,19.6,11.6,19.1,2.5-.1,4.9-1.1,7.2-1.9,2.7-1,5.4-2,8.1-3,3.7-1.4,8-3.3,9.2-7.5.6-2.2.5-4.6.3-6.9ZM59.6,59c.5-2.9,2.1-5.4,4.2-7.5,0-.1,0-.2,0-.3-.8-5.7-4.3-10.1-9.3-12.7-4.7-2.5-11.2-3.3-16.2-.4,0,.7-.1,1.5-.3,2.2-.7,2.7-2.1,5.2-3,7.8-.9,2.5-1.5,5.1-1.8,7.8-1.6,11.7,1.3,23.3,3.9,34.7,1.3,5.8,2.6,11.7,3.1,17.7,0,.8,0,1.6,0,2.4,4.6-1.4,9.2-3.1,13-6.1,1.9-1.5,3.5-3.3,4.6-5.5,1.5-2.9,1.7-6.3,1.7-9.5,0-6.8-.2-13.7-.2-20.5,0-3.3-.3-6.8.3-10ZM64.2,94.9c11.8,2.1,22.3-6.2,26.8-16.6,2.1-4.9,3.4-10.7,2-16-1.2-4.5-4.3-8.1-8.4-10.2-4-2-9-1.9-13.1,0-2,1-3.9,2.3-5.3,4.1-1.7,2.2-1.9,4.8-1.9,7.5,0,6.4.2,12.8.2,19.1,0,3.9.3,8-.3,11.9Z"/>
          <path class="cls-2" d="M29,87.7c-3.8-13.2-4.7-27.3-2.6-40.8.6-3.9,1.5-7.7,2.6-11.5.5-1.6-2-2.2-2.4-.7-3.9,13.6-4.8,28.1-2.6,42.1.6,3.9,1.5,7.8,2.6,11.6.5,1.6,2.9.9,2.4-.7Z"/>
          <path class="cls-2" d="M29.9,96.1c-.2-.2-.6-.4-.9-.4-.6,0-1.3.6-1.3,1.3.1,1.4.3,2.7.4,4.1,0,.3.1.6.4.9.2.2.6.4.9.4.6,0,1.3-.6,1.3-1.3-.1-1.4-.3-2.7-.4-4.1,0-.3-.1-.6-.4-.9Z"/>
          <path class="cls-2" d="M19.4,44.8c-.7,0-1.2.6-1.3,1.3-.1,3.6-.3,7.1-.4,10.7,0,.7.6,1.3,1.3,1.3s1.2-.6,1.3-1.3c.1-3.6.3-7.1.4-10.7,0-.7-.6-1.3-1.3-1.3Z"/>
          <path class="cls-2" d="M55,45.3c-1.9,8.5-2.6,17.3-2.2,26,.1,2.5.3,5,.6,7.4,0,.7.5,1.3,1.3,1.3s1.3-.6,1.3-1.3c-1-8.5-1-17.1.2-25.5.3-2.4.8-4.8,1.3-7.2.3-1.6-2.1-2.3-2.4-.7Z"/>
          <path class="cls-2" d="M55.5,85.7c-.7,0-1.3.6-1.3,1.3v6.2c0,.7.6,1.3,1.3,1.3.7,0,1.3-.6,1.3-1.3v-6.2c0-.7-.6-1.3-1.3-1.3Z"/>
          <path class="cls-2" d="M65.9,29.9c-.2-.1-.3-.3-.3-.5,0-.2,0-.4.3-.5,3.5-2.6,6.3-6.2,7.9-10.3,0-.2.3-.4.6-.4h0c.3,0,.5.2.6.4,1.6,4.1,4.4,7.6,7.9,10.3.2.1.3.3.3.5,0,.2,0,.4-.3.5-3.5,2.6-6.3,6.2-7.9,10.3,0,.2-.3.4-.6.4h0c-.3,0-.5-.2-.6-.4-1.6-4.1-4.4-7.6-7.9-10.3ZM67.3,29.4c3,2.4,5.5,5.5,7.1,8.9,1.6-3.5,4.1-6.5,7.1-8.9-3-2.4-5.5-5.5-7.1-9-1.6,3.5-4.1,6.5-7.1,9Z"/>
          <path class="cls-2" d="M49.8,16.3c-.2-.1-.3-.3-.3-.5,0-.2,0-.4.3-.5,1.7-1.2,3-2.9,3.7-4.9,0-.2.3-.4.6-.4h0c.3,0,.5.2.6.4.8,1.9,2.1,3.6,3.7,4.9.2.1.3.3.3.5,0,.2,0,.4-.3.5-1.7,1.2-3,2.9-3.7,4.8,0,.2-.3.4-.6.4h0c-.3,0-.5-.2-.6-.4-.8-1.9-2.1-3.6-3.7-4.8ZM51.2,15.8c1.2,1,2.2,2.2,2.9,3.6.7-1.4,1.7-2.6,2.9-3.6-1.2-1-2.2-2.3-2.9-3.6-.7,1.4-1.7,2.6-2.9,3.6Z"/>
          <path class="cls-2" d="M32.6,271.6c-.7,0-1.3.6-1.3,1.3v4c0,.7.6,1.3,1.3,1.3.7,0,1.3-.6,1.3-1.3v-4c0-.7-.6-1.3-1.3-1.3Z"/>
          <path class="cls-2" d="M32.6,282.8c-.7,0-1.3.6-1.3,1.3v4c0,.7.6,1.3,1.3,1.3.7,0,1.3-.6,1.3-1.3v-4c0-.7-.6-1.3-1.3-1.3Z"/>
          <path class="cls-2" d="M40.2,279.2h-4c-.7,0-1.3.6-1.3,1.3,0,.7.6,1.3,1.3,1.3h4c.7,0,1.3-.6,1.3-1.3,0-.7-.6-1.3-1.3-1.3Z"/>
          <path class="cls-2" d="M29,279.2h-4c-.7,0-1.3.6-1.3,1.3,0,.7.6,1.3,1.3,1.3h4c.7,0,1.3-.6,1.3-1.3,0-.7-.6-1.3-1.3-1.3Z"/>
          <path class="cls-2" d="M153.8,123.7c0-2.5,2-4.5,4.5-4.5s4.5,2,4.5,4.5-2,4.5-4.5,4.5-4.5-2-4.5-4.5ZM156.4,123.7c0,1.1.9,2,2,2s2-.9,2-2-.9-2-2-2-2,.9-2,2Z"/>
        </g>
        <g>
          <path class="cls-2" d="M366.2,66.6c5.5,4.9,10.4,10.7,13.3,17.6,2.5,5.9,2.9,12.4,1,18.6-1.5,4.8-4.2,9.2-8,12.4,0,.4,0,.8,0,1.1-.6,8.9-1.7,18.2-5.7,26.3-1.9,3.8-4.7,7.3-8.4,9.6-4.1,2.5-9.1,3.2-13.8,2.6-16.6-2-33.2-4.6-49.8-7.4-7.3-1.2-14.8-2.2-21.9-4.2-6.2-1.7-12.2-4.6-16.1-9.8-8.3-11.1-5.2-26-3.2-38.6-2.8-2.3-5-5.4-6.1-9-3.9-12.1,6.5-22.7,15.6-29,4.5-3.2,9.5-5.9,14.7-7.8,5.7-2,12-3.1,18-3.4-.1-.5-.2-1-.3-1.5-.7-5.3.2-11,3.5-15.4.4-.5.8-.8,1.3-1.1.1-.3.3-.6.6-.9.2-.2.4-.3.5-.5-2-2.4-2.6-5.7-1.2-8.7,1.5-3.1,5.1-4.6,8.5-4.1,1.4.2,3,.9,4,2,.2-.9.5-1.8.8-2.6,1.5-3.3,5.3-5.2,8.8-4.5,1.9.4,3.6,1.6,4.7,3.2,2.4-1.5,5.3-2,8-.6,3.2,1.7,4.9,6.2,3.1,9.4,3.1,1.7,5.7,4.1,7.2,7.4.1.3.3.6.4,1,0-.8.4-1.7,1.2-2,4.4-1.9,9.2-1.9,13.5-.4,2.4-3,6.5-4.7,10.2-3.1,2.6,1.1,4.4,3.8,4.6,6.6,1.3.4,2.5,1.3,3.3,2.5.9,1.4,1.1,3,.7,4.5,2.7,1.4,4.9,4,5,7.2.2,4.3-4,8.1-8.2,7-.3,0-.6-.2-.8-.4-.3,4.1-1.5,8.1-4,11.5-1.4,1.8-3,3.4-4.9,4.6ZM370.3,34c2.6,3.6,4.2,8.1,4.7,12.6.5-.5,1.3-.8,2.2-.5.1,0,.2,0,.3,0,.2,0,.4-.1.4-.1.2,0,.5-.3.6-.6.4-.6.6-1.2.4-1.8-.4-1.7-2.4-2.7-4.1-3.1-1.9-.4-2.4-2.9-1.1-4.2.4-.4.5-1,.3-1.5-.3-.5-1-.5-1.5-.4-.8.3-1.7,0-2.2-.5ZM364.9,28.6c.7.5,1.4,1,2.1,1.6,1,.8,1.8,1.8,2.6,2.8-.3-.7-.3-1.5.1-2.2.3-.5.3-1,0-1.6-.3-.7-.9-1.3-1.4-1.5-1.3-.4-2.5,0-3.5.9ZM338.9,27.4c-2.8-3.1-7.1-4.5-11.2-5-8.5-.9-17.5,1.6-23.4,7.9-.3.3-.6.5-.9.6,0,.1,0,.2-.2.3-2.9,4-3.7,9.1-2.5,13.9,1.2,5,4.3,9.4,8,13,6.3,6.1,16.5,12,25,6.7,8.4-5.2,8.6-16.8,8.4-25.5,0-4.1-.3-8.8-3.3-12ZM328,17.3s0,0,0,0c1.6.2,3.2.5,4.7.9.2,0,.3,0,.5.1.5-.7.6-1,.3-1.8-.2-.5-.6-1.1-1.2-1.3-1.5-.6-3.4.6-4.2,2ZM317,17.8s0,0,0,.1c2.2-.5,4.4-.7,6.6-.8-.2-.3-.3-.7-.3-1.1,0-2.4-2.7-3.6-4.5-2.1-1.2.9-1.1,2.6-1.7,3.9ZM305,23c1.6-1.2,3.4-2.1,5.3-3-.2-.1-.4-.3-.6-.5-.4-.3-.8-.8-1.2-1-.9-.4-2-.4-2.8,0-1.5.8-1.8,3.1-.6,4.3ZM258,97.6c-.5,3-1,6.2-1.4,9.4,2.6,2.3,5.6,4.1,8.7,5.5,3.6,1.6,7.4,2.4,11.3,3.3,15,3.7,30,7.3,45.3,9.5,14.7,2.1,29.7,2.7,44.4,1,.4-2.6.7-5.3.9-7.9-8.2,3.3-18.7.5-23.2-7.1-.3.2-.6.5-.9.7-10.1,7.5-25.6,6-33.9-3.5-.9-1-1.9-2.5-3.2-2.9-1.3-.4-2.7,1.1-3.8,1.7-2.7,1.6-5.8,2.4-8.9,2.4-6.3,0-12.7-3.1-16.2-8.4-.8-1.2-1.2-2.6-2-3.7-.5-.6-.7-.3-1.5,0-.8.3-1.5.6-2.3.9-3.2,1-6.8,1-10.1.2-1.1-.3-2.2-.6-3.2-1.1ZM365.8,128.9c-8.1,1-16.4,1.2-24.6.8-15.4-.7-30.7-3.4-45.7-6.8-7.7-1.7-15.5-3.6-23.2-5.5-5.8-1.4-11.4-3.7-16.1-7.3-.2,2-.2,4.1-.2,6,4.9,3.5,10.5,6,16.1,7.9,6.4,2.2,13,3.7,19.6,5.1,7,1.4,14,2.8,21,4,8.6,1.4,17.3,2.3,26,2.9,8.3.5,16.7.6,25,.3.9-2.5,1.5-4.9,2-7.3ZM362.8,138.8c-.4,0-.8,0-1.2,0-8.8.2-17.7,0-26.5-.6-8.8-.7-17.6-1.7-26.2-3.3-6.8-1.2-13.7-2.5-20.5-4-6.7-1.4-13.3-3.1-19.7-5.5-4.3-1.6-8.5-3.6-12.3-6.1.7,5.5,2.7,10.6,7.4,14.2,4.6,3.6,10.6,5,16.2,6.1,7.5,1.5,15.1,2.7,22.6,4,7.8,1.3,15.6,2.5,23.4,3.6,3.8.6,7.7,1.1,11.6,1.6,3.3.4,6.6,1.1,9.9,1.1,2.2,0,3.7-.2,5.9-1,.2,0,.3-.1.5-.2-.2.1-.2,0,0,0,.2,0,.4-.2.7-.3.4-.2.8-.4,1.2-.7.4-.2.7-.5,1.1-.8,0,0,.6-.5.6-.5,2.4-2.1,4.1-4.9,5.3-7.7ZM361.6,69c-2.1.9-4.3,1.5-6.6,1.8-5.8,1-12.1.6-17.1-2.9-1.7,1.4-3.7,2.4-5.8,3.1-11.2,3.4-22.7-3.9-29.7-12.2-2.2-2.6-4-5.4-5.3-8.5-.2,0-.5.2-.8.2-1.2,0-2.4.2-3.6.3-3.1.4-6.1.9-9.1,1.6-1.5.3-2.9.7-4.3,1.2-1.3.4-2,.8-3,1.2-4.8,2.2-9.4,4.9-13.5,8.2-4.1,3.3-8.1,7.2-10.1,12.1-.8,2-1.2,4.1-1,6.5,0,.8.4,2.2.8,3.3.4,1.2,1.1,2.5,1.9,3.6,3.2,4.3,9.3,6.5,14.6,5.3,1.6-.4,3.1-1.3,4.7-1.6,2.1-.4,4,.3,5.3,2,1,1.2,1.5,2.7,2.3,4,.7,1.1,1.5,2,2.4,2.8,3.8,3.4,9.6,4.4,14.4,2.6,1.2-.5,2.4-1.4,3.6-2.1,1.7-1,3.6-1.5,5.6-1.1,3.3.8,5,3.9,7.3,6.1,7.8,7.3,21.6,6.5,28.6-1.6,1.3-1.5,3.7-.6,4.2,1.1,1.3,4.6,5.5,7.4,10.2,8.3,3.5.7,7.2-.2,10.3-2.2.3-.7,1-1.1,1.7-1.2,0,0,0,0,0,0,3.8-3.3,6-8,6.9-12.9,2-11.4-6.2-21.6-14.2-28.6-.2-.2-.4-.4-.5-.7ZM367.6,58.1c2.2-3.7,3-8.4,2.2-12.6-.8-4.7-3.2-9.3-7-12.2-3.7-2.9-9.1-4.2-13.6-2.3-1.1.5-2.3.4-3.1-.4,1.2,4.1,1.1,8.6,1.1,12.8,0,5.9-.7,11.9-3.4,17.3-.6,1.3-1.4,2.5-2.3,3.6,4.2,2.3,9.2,2.4,13.8,1.3,4.8-1.1,9.5-3.2,12.2-7.5Z"/>
          <path class="cls-2" d="M389.8,80.3c-.6.2-1.1.9-.9,1.6,2.3,6.2,2.8,12.9,1.5,19.3-.1.7.2,1.4.9,1.6.6.2,1.4-.2,1.6-.9,1.4-6.9.9-14.1-1.5-20.7-.2-.6-.9-1.1-1.6-.9Z"/>
          <path class="cls-2" d="M384.6,82.8c-.6.4-.7,1.1-.5,1.7,1.3,3.1,1.8,6.4,1.4,9.7,0,.7.6,1.3,1.3,1.3s1.2-.6,1.3-1.3c.4-3.8-.2-7.5-1.7-11-.3-.6-1.2-.8-1.7-.5Z"/>
          <path class="cls-2" d="M476.2,15.5c.2.1.3.3.3.5,0,.2,0,.4-.3.5-1.7,1.2-3,2.9-3.7,4.8,0,.2-.3.4-.6.4h0c-.3,0-.5-.2-.6-.4-.8-1.9-2.1-3.6-3.7-4.8-.2-.1-.3-.3-.3-.5,0-.2,0-.4.3-.5,1.7-1.2,3-2.9,3.7-4.9,0-.2.3-.4.6-.4h0c.3,0,.5.2.6.4.8,1.9,2.1,3.6,3.7,4.9ZM474.8,16c-1.2-1-2.2-2.3-2.9-3.6-.7,1.4-1.7,2.6-2.9,3.6,1.2,1,2.2,2.2,2.9,3.6.7-1.4,1.7-2.6,2.9-3.6Z"/>
          <path class="cls-2" d="M554.1,93.8c-.1,0-.3.1-.4.2-10.3,3.3-20.9,5.4-31.6,6.4-9.4.9-18.9.9-28.3,0-4.7-.5-9.5-1.1-14.1-2.1-2.2-.5-4.1-1.4-5.4-3.3-1.3-1.8-2-4.1-2.9-6.2-3.7-8.7-6.6-17.8-8.8-27-.5-2.1-1.2-4.3-.8-6.5.4-2.3,2.2-3.8,4.4-4.4,2.2-.5,4.6-.7,6.9-1,2.3-.3,4.5-.6,6.8-.9-1.6-5.7,0-12,4.8-16,1.7-1.4,3.5-2.3,5.5-2.9-1.1-4.7.2-9.9,3.5-13.4,2.4-2.6,5.6-4,9.1-4.4-.6-2.2-.6-4.5,0-6.7,1.1-3.2,3.3-5.6,6.5-6.9,2.7-1.1,5.2-2.1,6.9-4.7,1.4-2.1,2.3-4.8,1.9-7.4-.3-2,1.1-3.4,3.1-3.1,5,.7,9.5,4.1,11.8,8.6.3.6.3,1.2.2,1.7,2.1-.6,4.2-.9,6.4-.9.4,0,.7,0,1.1,0,1-.9,2-1.8,3-2.6,1.1-.8,2.5-1.1,3.6,0,.9.9,1.1,2.7,0,3.6-.2.1-.4.3-.5.4,4.3,1.7,8,4.9,10,9.3,2.4,5.4,2.5,11.9,0,17.2,1.7,0,3.4.4,4.9,1.4,5.1,3.2,7.1,9.9,6,15.6-.6,3.1-2.3,6-4.7,8-1.8,1.5-3.9,2.5-6.1,3.2,3.3.8,5.9,3.4,7.2,6.7,1.6,4.1,1.1,8.7,1,12.9-.1,3.7,0,7.5-.7,11.2-1,6.1-4.1,12-10.3,13.8ZM473.4,80.2c6.3.9,12.7,1.8,19.1,2.5,11.3,1.2,22.8,1.8,34.2.7,11.3-1.1,22.4-4.1,32.6-9.2.3-.1.5-.2.8-.1,0-1.9.1-3.9.2-5.8,0-.8,0-1.6,0-2.4-5.2,3.4-11,5.9-17,7.6-5.7,1.6-11.5,2.4-17.4,3.1-6.2.7-12.5,1.4-18.8,1.5-12.1.2-24.2-1.3-35.9-4.3.6,2,1.3,3.9,2,5.9,0,.2.1.4.2.6ZM561.1,40.7c0,0,.2-.3,0,0h0ZM546.3-.4c-1.2-.6-2.4-1-3.7-1.3-3.1,3.1-5.8,6.6-8,10.4,3.7.9,7.3,2.6,10.3,5.2,2.4,2.1,4.4,4.7,5.7,7.6,0,0,0,0,0-.1,1.9-2.5,3-5.5,3-8.6.1-5.5-2.5-10.6-7.4-13.2ZM509.5,35.7c.9,3.9,5,6.5,8.4,8.1,4.4,2.1,9.9,2.8,14.7,2.7,3.7-.1,7.2-1.3,10-3.9,2.5-2.3,4.2-5.4,4.9-8.7,1.5-6.9-2.5-14.3-8.4-17.9-2.1-1.3-4.5-2.2-6.9-2.6-.9,1.9-1.6,3.8-2.2,5.8-1,3.1-5.8,1.8-4.9-1.3.5-1.6,1.1-3.1,1.7-4.6-3.5.3-6.9,1.4-9.8,3.3-5.7,3.6-9.9,10.8-8.3,17.6,0,.1,0,.2,0,.3.3.3.6.7.7,1.3ZM495.3,29.2c2.8,0,5.6.6,8.1,1.8,0-8.6,6-16.8,13.8-20.4,3.8-1.7,7.9-2.6,12-2.5,1.8-3.4,4-6.7,6.5-9.7-1.7.4-3.3,1.1-4.7,2.1-1.1.8-2.8.2-3.5-.9-.7-1.2-.2-2.7.9-3.5.3-.2.7-.5,1.1-.7-.3-.2-.5-.5-.7-.9-1.2-2.5-3.2-4.3-5.6-5.3-.5,4.9-3.1,9.4-7.4,12-2.4,1.5-5.7,1.7-7.3,4.2-1.2,1.9-1.4,4.3-.3,6.3.2.4.3.8.3,1.2.5.6.7,1.6.5,2.3-.3,1.4-1.8,2-3.1,1.8-.1,0-.2,0-.2,0,0,0,0,0-.1,0-.2,0-.5,0-.7,0-.5,0-1,0-1.5,0,0,0,0,0-.1,0,0,0,0,0-.1,0-.2,0-.4,0-.7.1-.4,0-.9.2-1.3.4-.2,0-.3.1-.5.2,0,0-.3.1-.4.2-.4.2-.8.4-1.2.7-.2.1-.4.3-.6.4,0,0,0,0,0,0,0,0,0,0-.1.1-.3.3-.7.6-1,.9-.1.1-.2.3-.3.4,0,0-.2.3-.3.3-.3.4-.5.8-.7,1.2-.1.2-.2.4-.3.6,0,0,0,0,0,.1,0,0,0,0,0,.1-.2.5-.3.9-.4,1.4,0,.2-.1.4-.1.7,0,0,0,.2,0,.3,0,.4,0,.9,0,1.3,0,.5,0,.9,0,1.4,0,0,0,.3,0,.3,0,.2,0,.4.2.7,0,.1,0,.2,0,.3ZM488.6,53.7c4.9,4.8,12.2,5.6,18.7,5.3,14.6-.7,29.2-5.4,41.8-12.6,0,0,.2,0,.3-.1.5-.7,1.2-1.1,2.1-1.2,1,0,1.7-.2,2.9-.4.5-.1,1-.2,1.4-.4.2,0,.4-.2.7-.2,0,0,.3-.1.4-.1.7-.3,1.3-.7,2-1.1.2-.1.4-.3.6-.4,0,0,0,0,0,0,.3-.2.6-.5.9-.8.3-.3.5-.5.8-.8,0-.1.2-.2.3-.4.3-.5.6-1,.9-1.5,0,0,0,0,0,0,0,0,0,0,0,0,0-.1.1-.3.2-.4,0-.2.2-.5.2-.7,0-.3.1-.6.2-.8,0-.2,0-.5,0-.6,0-.5,0-1.1,0-1.6,0-.3,0-.6,0-.8,0-.1,0-.2,0-.4-.1-.6-.2-1.2-.4-1.8,0-.3-.2-.5-.3-.8,0-.1,0-.2-.1-.3,0,0,0,0,0,0-.3-.5-.5-1-.8-1.5-.1-.2-.3-.4-.4-.6,0,0,0,0,0,0,0,0,0,0-.1-.1-.4-.4-.8-.7-1.1-1.1,0,0-.1-.1-.2-.1-.2-.1-.4-.3-.6-.4-.1,0-.2-.1-.4-.2-.2,0-.4-.1-.6-.2-.2,0-.5,0-.7-.2.8.2,0,0-.2,0-.3,0-.6,0-.9,0,0,0,0,0,.1,0,0,0-.1,0-.2,0,0,0,0,0,0,0-.1,0-.3,0-.1,0,0,0,0,0-.1,0-.3,0-.5.1-.8.2-.2,0-1,.4-.4.1-.7.3-1.5.4-2.1.2.8,3.8.6,7.9-.9,11.6-1.6,4.1-4.4,7.7-8.1,10.2-4.4,2.9-9.6,3.5-14.7,3-5.2-.5-10.5-1.5-15-4.2-3.8-2.2-7.5-5.3-8.8-9.7-.3,0-.6-.1-.9-.3-5.4-3.9-13.7-4.3-17.8,1.7-3.4,4.9-1.4,10.9,2.6,14.8ZM467.3,60c.5,2.3,1.1,4.7,1.8,7,.4,1.3.8,2.6,1.2,3.9,6.5,1.8,13.1,3,19.8,3.8,6.4.7,12.8,1,19.3.8,6.1-.2,12.3-.9,18.4-1.7,5.6-.7,11.3-1.7,16.7-3.3,5.6-1.7,10.8-4.2,15.6-7.5,0,0,.1,0,.2-.1,0-.6,0-1.2,0-1.7-.1-1.8-.5-3.8-1.7-5.3-.8-1-2.3-2.1-3.7-1.9-1.4.2-2.7-.3-3.1-1.8-.1-.4,0-.9,0-1.3-8.3,4.7-17.2,8.3-26.4,10.6-13.7,3.4-34.4,6.4-43.2-7.6-2.6.4-5.2.7-7.8,1.1-2.3.3-4.9.4-7.2,1.1,0,0-.2,0-.2.1,0,0-.1.2-.1.2,0,.2,0,.5,0,.8,0,1,.4,2,.6,3ZM551.3,89.4c.2-.1.4-.2.7-.3,5.6-1.3,7.3-7.1,7.7-12.4-5.7,2.8-11.7,5.1-17.9,6.6-11.2,2.8-22.8,3.5-34.2,3-11.2-.4-22.2-1.9-33.3-3.5,1.1,2.9,2.2,5.7,3.6,8.4.8,1.6,1.9,1.9,3.6,2.2,2.1.4,4.3.8,6.4,1.1,4.2.6,8.5,1,12.8,1.2,17.1.9,34.3-1.3,50.6-6.4Z"/>
          <path class="cls-2" d="M556,26c0,0-.1,0-.2,0,0,0,.1,0,.2,0,0,0,0,0,0,0Z"/>
          <path class="cls-2" d="M533.9,39c.5.5,1.3.5,1.8,0,1.4-1.4,2.8-2.8,4.1-4.2.5-.5.5-1.3,0-1.8-.5-.5-1.3-.5-1.8,0-1.4,1.4-2.8,2.8-4.1,4.2-.5.5-.5,1.3,0,1.8Z"/>
          <path class="cls-2" d="M533.2,34.5c1.7-.9,3.2-2.2,4.2-3.8.2-.3.2-.7.1-1,0-.3-.3-.6-.6-.8-.6-.3-1.3-.1-1.7.5,0,0-.1.2-.2.3-.5.6-1,1.2-1.7,1.7-.5.3-1,.7-1.5.9-.6.3-.8,1.2-.5,1.7.4.6,1.1.8,1.7.5Z"/>
          <path class="cls-2" d="M573,90.7c.9-1.4-1.3-2.6-2.2-1.3-3.6,5.5-9,9.7-15.1,12-.6.2-1.1.9-.9,1.6.2.6.9,1.1,1.6.9,6.8-2.5,12.6-7.1,16.6-13.1Z"/>
          <path class="cls-2" d="M580.3,92.4c-.4-.4-1.4-.5-1.8,0-3.8,4.9-8.4,9-13.6,12.2-1.4.8-.1,3,1.3,2.2,5.4-3.3,10.2-7.6,14.1-12.6.4-.5.5-1.3,0-1.8Z"/>
          <path class="cls-2" d="M426.3,106.6c-.7,0-1.3.6-1.3,1.3v4c0,.7.6,1.3,1.3,1.3.7,0,1.3-.6,1.3-1.3v-4c0-.7-.6-1.3-1.3-1.3Z"/>
          <path class="cls-2" d="M426.3,117.8c-.7,0-1.3.6-1.3,1.3v4c0,.7.6,1.3,1.3,1.3.7,0,1.3-.6,1.3-1.3v-4c0-.7-.6-1.3-1.3-1.3Z"/>
          <path class="cls-2" d="M433.9,114.2h-4c-.7,0-1.3.6-1.3,1.3,0,.7.6,1.3,1.3,1.3h4c.7,0,1.3-.6,1.3-1.3,0-.7-.6-1.3-1.3-1.3Z"/>
          <path class="cls-2" d="M422.7,114.2h-4c-.7,0-1.3.6-1.3,1.3,0,.7.6,1.3,1.3,1.3h4c.7,0,1.3-.6,1.3-1.3,0-.7-.6-1.3-1.3-1.3Z"/>
          <path class="cls-2" d="M215.8,70.6c0,2.5-2,4.5-4.5,4.5s-4.5-2-4.5-4.5,2-4.5,4.5-4.5,4.5,2,4.5,4.5ZM213.3,70.6c0-1.1-.9-2-2-2s-2,.9-2,2,.9,2,2,2,2-.9,2-2Z"/>
        </g>
      </g>
    </pattern>
  </defs>
  <g id="Layer_1" data-name="Layer 1">
    <g class="cls-4">
      <rect class="cls-3" x="0" y="0" width="2500" height="2000"/>
    </g>
  </g>
</svg>
