<?xml version="1.0" encoding="utf-8"?>
<!-- Generator: Adobe Illustrator 24.3.0, SVG Export Plug-In . SVG Version: 6.00 Build 0)  -->
<svg version="1.1" id="_x31_" xmlns="http://www.w3.org/2000/svg" xmlns:xlink="http://www.w3.org/1999/xlink" x="0px"
    y="0px" viewBox="0 0 1920 2160" style="enable-background:new 0 0 1920 2160;" xml:space="preserve">
    <style type="text/css">
        .st0 {
            fill: none;
            stroke: #b4b4b45f;
            stroke-width: 5;
            stroke-miterlimit: 10;
        }
    </style>
    <g>
        <g>
            <line class="st0" x1="423.5" y1="1178.5" x2="352.5" y2="1266.5" />
        </g>
        <line class="st0" x1="590.5" y1="1329.5" x2="429.5" y2="1521.5" />
        <line class="st0" x1="1014.5" y1="1222.5" x2="855.5" y2="1413.5" />
        <line class="st0" x1="651.5" y1="1697.5" x2="596.5" y2="1774.5" />
        <line class="st0" x1="1122.5" y1="1717.5" x2="886.5" y2="1996.5" />
        <line class="st0" x1="1394.5" y1="1246.5" x2="1337.5" y2="1330.5" />
        <line class="st0" x1="1629.5" y1="1380.5" x2="1487.5" y2="1624.5" />
        <line class="st0" x1="1673.5" y1="1857.5" x2="1610.5" y2="1974.5" />
        <line class="st0" x1="1366.5" y1="1875.5" x2="1339.5" y2="1930.5" />
        <line class="st0" x1="269.5" y1="1723.5" x2="102.5" y2="1954.5" />
        <path class="st0" d="M352.5,1295.5c-23,1-24,33-24,33s-1-33-23-33c23,0,23-34,23-34S331.5,1296.5,352.5,1295.5z" />
        <path class="st0" d="M848.9,1450.9c-23,1-24,33-24,33s-1-33-23-33c23,0,23-34,23-34S827.9,1451.9,848.9,1450.9z" />
        <path class="st0" d="M593.9,1810.9c-23,1-24,33-24,33s-1-33-23-33c23,0,23-34,23-34S572.9,1811.9,593.9,1810.9z" />
        <path class="st0" d="M422.9,1558.9c-23,1-24,33-24,33s-1-33-23-33c23,0,23-34,23-34S401.9,1559.9,422.9,1558.9z" />
        <path class="st0" d="M101.9,1987.9c-23,1-24,33-24,33s-1-33-23-33c23,0,23-34,23-34S80.9,1988.9,101.9,1987.9z" />
        <path class="st0"
            d="M1331.9,1373.9c-23,1-24,33-24,33s-1-33-23-33c23,0,23-34,23-34S1310.9,1374.9,1331.9,1373.9z" />
        <path class="st0" d="M879.9,2031.9c-23,1-24,33-24,33s-1-33-23-33c23,0,23-34,23-34S858.9,2032.9,879.9,2031.9z" />
        <path class="st0"
            d="M1483.9,1670.9c-23,1-24,33-24,33s-1-33-23-33c23,0,23-34,23-34S1462.9,1671.9,1483.9,1670.9z" />
        <path class="st0"
            d="M1341.9,1973.9c-23,1-24,33-24,33s-1-33-23-33c23,0,23-34,23-34S1320.9,1974.9,1341.9,1973.9z" />
        <path class="st0"
            d="M1608.9,2021.9c-23,1-24,33-24,33s-1-33-23-33c23,0,23-34,23-34S1587.9,2022.9,1608.9,2021.9z" />
        <path class="st0"
            d="M1802.9,1339.9c-23,1-24,33-24,33s-1-33-23-33c23,0,23-34,23-34S1781.9,1340.9,1802.9,1339.9z" />
        <path class="st0"
            d="M1059.9,1590.9c-23,1-24,33-24,33s-1-33-23-33c23,0,23-34,23-34S1038.9,1591.9,1059.9,1590.9z" />
        <path class="st0" d="M556.9,2007.9c-23,1-24,33-24,33s-1-33-23-33c23,0,23-34,23-34S535.9,2008.9,556.9,2007.9z" />
        <path class="st0" d="M193.9,1450.9c-23,1-24,33-24,33s-1-33-23-33c23,0,23-34,23-34S172.9,1451.9,193.9,1450.9z" />
        <line class="st0" x1="1788.5" y1="1644.5" x2="1755.5" y2="1703.5" />
        <line class="st0" x1="1608.5" y1="1125.5" x2="1539.5" y2="1261.5" />
        <line class="st0" x1="1141.5" y1="1318.5" x2="1100.5" y2="1373.5" />
        <line class="st0" x1="816.5" y1="1736.5" x2="777.5" y2="1794.5" />
        <line class="st0" x1="363.5" y1="1939.5" x2="321.5" y2="2007.5" />
    </g>
    <g>
        <g>
            <line class="st0" x1="1155.9" y1="168.8" x2="1084.9" y2="256.8" />
        </g>
        <line class="st0" x1="1322.9" y1="319.8" x2="1161.9" y2="511.8" />
        <line class="st0" x1="1746.9" y1="212.8" x2="1587.9" y2="403.8" />
        <line class="st0" x1="1383.9" y1="687.8" x2="1328.9" y2="764.8" />
        <line class="st0" x1="1854.9" y1="707.8" x2="1618.9" y2="986.8" />
        <line class="st0" x1="1001.9" y1="713.8" x2="834.9" y2="944.8" />
        <path class="st0" d="M1084.9,285.8c-23,1-24,33-24,33s-1-33-23-33c23,0,23-34,23-34S1063.9,286.8,1084.9,285.8z" />
        <path class="st0" d="M1581.3,441.2c-23,1-24,33-24,33s-1-33-23-33c23,0,23-34,23-34S1560.3,442.2,1581.3,441.2z" />
        <path class="st0" d="M1326.3,801.2c-23,1-24,33-24,33s-1-33-23-33c23,0,23-34,23-34S1305.3,802.2,1326.3,801.2z" />
        <path class="st0" d="M1155.3,549.2c-23,1-24,33-24,33s-1-33-23-33c23,0,23-34,23-34S1134.3,550.2,1155.3,549.2z" />
        <path class="st0" d="M834.3,978.2c-23,1-24,33-24,33s-1-33-23-33c23,0,23-34,23-34S813.3,979.2,834.3,978.2z" />
        <path class="st0"
            d="M1612.3,1022.2c-23,1-24,33-24,33s-1-33-23-33c23,0,23-34,23-34S1591.3,1023.2,1612.3,1022.2z" />
        <path class="st0" d="M1792.3,581.2c-23,1-24,33-24,33s-1-33-23-33c23,0,23-34,23-34S1771.3,582.2,1792.3,581.2z" />
        <path class="st0" d="M1289.3,998.2c-23,1-24,33-24,33s-1-33-23-33c23,0,23-34,23-34S1268.3,999.2,1289.3,998.2z" />
        <path class="st0" d="M926.3,441.2c-23,1-24,33-24,33s-1-33-23-33c23,0,23-34,23-34S905.3,442.2,926.3,441.2z" />
        <line class="st0" x1="1873.9" y1="308.8" x2="1832.9" y2="363.8" />
        <line class="st0" x1="1548.9" y1="726.8" x2="1509.9" y2="784.8" />
        <line class="st0" x1="1095.9" y1="929.8" x2="1053.9" y2="997.8" />
    </g>
    <g>
        <line class="st0" x1="300.9" y1="236.8" x2="243.9" y2="320.8" />
        <line class="st0" x1="535.9" y1="370.8" x2="393.9" y2="614.8" />
        <line class="st0" x1="579.9" y1="847.8" x2="516.9" y2="964.8" />
        <line class="st0" x1="272.9" y1="865.8" x2="245.9" y2="920.8" />
        <path class="st0" d="M238.3,364.2c-23,1-24,33-24,33s-1-33-23-33c23,0,23-34,23-34S217.3,365.2,238.3,364.2z" />
        <path class="st0" d="M390.3,661.2c-23,1-24,33-24,33s-1-33-23-33c23,0,23-34,23-34S369.3,662.2,390.3,661.2z" />
        <path class="st0" d="M248.3,964.2c-23,1-24,33-24,33s-1-33-23-33c23,0,23-34,23-34S227.3,965.2,248.3,964.2z" />
        <path class="st0" d="M515.3,1012.2c-23,1-24,33-24,33s-1-33-23-33c23,0,23-34,23-34S494.3,1013.2,515.3,1012.2z" />
        <path class="st0" d="M709.3,330.2c-23,1-24,33-24,33s-1-33-23-33c23,0,23-34,23-34S688.3,331.2,709.3,330.2z" />
        <line class="st0" x1="694.9" y1="634.8" x2="661.9" y2="693.8" />
        <line class="st0" x1="514.9" y1="115.8" x2="445.9" y2="251.8" />
        <line class="st0" x1="47.9" y1="308.8" x2="6.9" y2="363.8" />
    </g>
</svg>
